<?xml version="1.0" standalone="no"?>
<!DOCTYPE svg PUBLIC "-//W3C//DTD SVG 1.1//EN" "http://www.w3.org/Graphics/SVG/1.1/DTD/svg11.dtd" >
<!--
2013-9-30: Created.
-->
<svg>
<metadata>
Created by iconfont
</metadata>
<defs>

<font id="iconfont" horiz-adv-x="1024" >
  <font-face
    font-family="iconfont"
    font-weight="500"
    font-stretch="normal"
    units-per-em="1024"
    ascent="896"
    descent="-128"
  />
    <missing-glyph />
    
    <glyph glyph-name="Addnewcompose" unicode="&#59849;" d="M661.333333 405.333333h-128v128a21.333333 21.333333 0 0 1-42.666666 0v-128h-128a21.333333 21.333333 0 0 1 0-42.666666h128v-128a21.333333 21.333333 0 0 1 42.666666 0v128h128a21.333333 21.333333 0 0 1 0 42.666666zM512 810.666667a426.666667 426.666667 0 1 1 426.666667-426.666667A427.157333 427.157333 0 0 1 512 810.666667z m0-810.666667a384 384 0 1 0 384 384 384.426667 384.426667 0 0 0-384-384z"  horiz-adv-x="1024" />

    
    <glyph glyph-name="Recordermicrophonesound" unicode="&#59850;" d="M512 256a170.858667 170.858667 0 0 1 170.666667 170.666667V640a170.666667 170.666667 0 0 1-341.333334 0v-213.333333a170.858667 170.858667 0 0 1 170.666667-170.666667z m-128 384a128 128 0 0 0 256 0v-213.333333a128 128 0 0 0-256 0zM789.333333 469.333333a21.333333 21.333333 0 0 1-21.333333-21.333333v-21.333333a256 256 0 0 0-512 0v21.333333a21.333333 21.333333 0 0 1-42.666667 0v-21.333333a298.837333 298.837333 0 0 1 277.333334-297.6V0h-128a21.333333 21.333333 0 0 1 0-42.666667h298.666666a21.333333 21.333333 0 0 1 0 42.666667h-128v129.066667A298.837333 298.837333 0 0 1 810.666667 426.666667v21.333333a21.333333 21.333333 0 0 1-21.333334 21.333333z"  horiz-adv-x="1024" />

    
    <glyph glyph-name="Savedatadownload" unicode="&#59851;" d="M889.749333 591.082667l-170.666666 170.666666A21.333333 21.333333 0 0 1 704 768H234.666667a106.773333 106.773333 0 0 1-106.666667-106.666667v-554.666666a106.773333 106.773333 0 0 1 106.666667-106.666667h554.666666a106.773333 106.773333 0 0 1 106.666667 106.666667V576a21.333333 21.333333 0 0 1-6.250667 15.082667zM597.333333 725.333333v-128H298.666667V725.333333zM298.666667 42.666667V384h426.666666v-341.333333z m554.666666 64a64.064 64.064 0 0 0-64-64h-21.333333V405.333333a21.333333 21.333333 0 0 1-21.333333 21.333334H277.333333a21.333333 21.333333 0 0 1-21.333333-21.333334v-362.666666h-21.333333a64.064 64.064 0 0 0-64 64V661.333333a64.064 64.064 0 0 0 64 64h21.333333v-149.333333a21.333333 21.333333 0 0 1 21.333333-21.333333h341.333334a21.333333 21.333333 0 0 1 21.333333 21.333333V725.333333h55.168L853.333333 567.168zM618.666667 298.666667H405.333333a21.333333 21.333333 0 0 1 0-42.666667h213.333334a21.333333 21.333333 0 0 1 0 42.666667zM618.666667 170.666667H405.333333a21.333333 21.333333 0 0 1 0-42.666667h213.333334a21.333333 21.333333 0 0 1 0 42.666667z"  horiz-adv-x="1024" />

    
    <glyph glyph-name="Searchzoommagnifying" unicode="&#59852;" d="M576 768a319.509333 319.509333 0 0 1-240.533333-530.368l-201.216-201.216a21.333333 21.333333 0 1 1 30.165333-30.165333l201.216 201.216A319.808 319.808 0 1 1 576 768z m0-597.333333a277.333333 277.333333 0 1 0 277.333333 277.333333 277.653333 277.653333 0 0 0-277.333333-277.333333z"  horiz-adv-x="1024" />

    
    <glyph glyph-name="Recyclebintrashgarbage" unicode="&#59853;" d="M405.333333 725.333333h213.333334a21.333333 21.333333 0 0 1 0 42.666667H405.333333a21.333333 21.333333 0 0 1 0-42.666667zM448 170.666667a21.333333 21.333333 0 0 1 21.333333 21.333333V448a21.333333 21.333333 0 0 1-42.666666 0v-256a21.333333 21.333333 0 0 1 21.333333-21.333333zM832 640H192a21.333333 21.333333 0 0 1 0-42.666667h64v-576a21.333333 21.333333 0 0 1 21.333333-21.333333h469.333334a21.333333 21.333333 0 0 1 21.333333 21.333333V597.333333h64a21.333333 21.333333 0 0 1 0 42.666667z m-106.666667-597.333333H298.666667V597.333333h426.666666zM576 170.666667a21.333333 21.333333 0 0 1 21.333333 21.333333V448a21.333333 21.333333 0 0 1-42.666666 0v-256a21.333333 21.333333 0 0 1 21.333333-21.333333z"  horiz-adv-x="1024" />

    
    <glyph glyph-name="Refreshsyncreload" unicode="&#59854;" d="M975.082667 463.082667a21.333333 21.333333 0 0 1-30.165334 0l-50.368-50.368A383.552 383.552 0 0 1 186.538667 587.306667a21.333333 21.333333 0 1 1 36.181333-22.613334 341.056 341.056 0 0 0 629.034667-148.928l-47.338667 47.317334a21.333333 21.333333 0 0 1-30.165333-30.165334l85.333333-85.333333a21.333333 21.333333 0 0 1 30.165333 0l85.333334 85.333333a21.333333 21.333333 0 0 1 0 30.165334zM830.72 210.090667a21.397333 21.397333 0 0 1-29.418667-6.784 341.056 341.056 0 0 0-629.056 148.949333l47.338667-47.338667a21.333333 21.333333 0 0 1 30.165333 30.165334l-85.333333 85.333333a21.333333 21.333333 0 0 1-30.165333 0l-85.333334-85.333333a21.333333 21.333333 0 0 1 30.165334-30.165334l50.368 50.368a383.552 383.552 0 0 1 708.010666-174.592 21.333333 21.333333 0 0 1-6.741333 29.397334z"  horiz-adv-x="1024" />

    
    <glyph glyph-name="showviewvisible" unicode="&#59855;" d="M512 533.333333a149.333333 149.333333 0 1 1 149.333333-149.333333 149.504 149.504 0 0 1-149.333333 149.333333z m0-256a106.666667 106.666667 0 1 0 106.666667 106.666667 106.773333 106.773333 0 0 0-106.666667-106.666667zM512 640C220.416 640 42.666667 418.346667 42.666667 384s177.749333-256 469.333333-256 469.333333 221.653333 469.333333 256-177.749333 256-469.333333 256z m0-469.333333A541.354667 541.354667 0 0 0 86.869333 384 541.354667 541.354667 0 0 0 512 597.333333a541.354667 541.354667 0 0 0 425.130667-213.333333A541.354667 541.354667 0 0 0 512 170.666667z"  horiz-adv-x="1024" />

    
    <glyph glyph-name="Sharelinksend" unicode="&#59856;" d="M874.666667 341.333333a21.333333 21.333333 0 0 1-21.333334-21.333333v-277.333333H170.666667V725.333333h277.333333a21.333333 21.333333 0 0 1 0 42.666667H149.333333a21.333333 21.333333 0 0 1-21.333333-21.333333v-725.333334a21.333333 21.333333 0 0 1 21.333333-21.333333h725.333334a21.333333 21.333333 0 0 1 21.333333 21.333333V320a21.333333 21.333333 0 0 1-21.333333 21.333333zM874.666667 768H661.333333a21.333333 21.333333 0 0 1 0-42.666667h161.834667L560.917333 463.082667a21.333333 21.333333 0 1 1 30.165334-30.165334L853.333333 695.168V533.333333a21.333333 21.333333 0 0 1 42.666667 0V746.666667a21.333333 21.333333 0 0 1-21.333333 21.333333z"  horiz-adv-x="1024" />

    
    <glyph glyph-name="Zoomoutmagnifier" unicode="&#59857;" d="M576 768a319.509333 319.509333 0 0 1-240.533333-530.368l-201.216-201.216a21.333333 21.333333 0 1 1 30.165333-30.165333l201.216 201.216A319.808 319.808 0 1 1 576 768z m0-597.333333a277.333333 277.333333 0 1 0 277.333333 277.333333 277.653333 277.653333 0 0 0-277.333333-277.333333zM661.333333 469.333333h-170.666666a21.333333 21.333333 0 0 1 0-42.666666h170.666666a21.333333 21.333333 0 0 1 0 42.666666z"  horiz-adv-x="1024" />

    
    <glyph glyph-name="securityprotectionshield" unicode="&#59858;" d="M883.754667 616.618667l-362.666667 170.666666a21.034667 21.034667 0 0 1-18.176 0l-362.666667-170.666666a21.312 21.312 0 0 1-12.245333-19.306667c0-475.776 346.602667-618.666667 384-618.666667s384 142.890667 384 618.666667a21.312 21.312 0 0 1-12.245333 19.306667zM513.578667 21.248c-3.392 0.490667-336.341333 106.666667-342.826667 562.56L512 744.426667l341.226667-160.576c-6.464-455.914667-339.370667-562.090667-339.626667-562.581334zM420.416 420.394667a21.333333 21.333333 0 0 1-30.165333-30.165334l85.333333-85.333333A21.354667 21.354667 0 0 1 490.666667 298.666667h0.704a21.376 21.376 0 0 1 15.36 7.296l149.333333 170.666666a21.333333 21.333333 0 0 1-32.128 28.096l-134.314667-153.514666z"  horiz-adv-x="1024" />

    
    <glyph glyph-name="Videorecordcamera" unicode="&#59859;" d="M928.533333 636.8a21.226667 21.226667 0 0 1-20.736 0.96L682.666667 525.162667V576a106.794667 106.794667 0 0 1-106.666667 106.666667H192a106.794667 106.794667 0 0 1-106.666667-106.666667v-384a106.794667 106.794667 0 0 1 106.666667-106.666667h384a106.794667 106.794667 0 0 1 106.666667 106.666667v50.816l225.130666-112.576A21.333333 21.333333 0 0 1 938.666667 149.333333V618.666667a21.333333 21.333333 0 0 1-10.133334 18.133333zM640 192a64.064 64.064 0 0 0-64-64H192a64.064 64.064 0 0 0-64 64V576a64.064 64.064 0 0 0 64 64h384a64.064 64.064 0 0 0 64-64z m256-8.149333l-213.333333 106.666666v186.965334l213.333333 106.666666z"  horiz-adv-x="1024" />

    
    <glyph glyph-name="Arrowleftback" unicode="&#59860;" d="M512 810.666667a426.666667 426.666667 0 1 1 426.666667-426.666667A427.136 427.136 0 0 1 512 810.666667z m0-810.666667a384 384 0 1 0 384 384 384.426667 384.426667 0 0 0-384-384zM592.064 547.370667a21.269333 21.269333 0 0 1-30.101333 2.026666l-170.666667-149.333333a21.333333 21.333333 0 0 1 0-32.128l170.666667-149.333333a21.333333 21.333333 0 1 1 28.074666 32.128L437.717333 384l152.32 133.269333a21.333333 21.333333 0 0 1 2.026667 30.101334z"  horiz-adv-x="1024" />

    
    <glyph glyph-name="checkmarkapprovedaccepted" unicode="&#59861;" d="M512 810.666667a426.666667 426.666667 0 1 1 426.666667-426.666667A427.157333 427.157333 0 0 1 512 810.666667z m0-810.666667a384 384 0 1 0 384 384 384.426667 384.426667 0 0 0-384-384zM644.672 504l-155.776-194.709333-89.813333 89.792a21.333333 21.333333 0 0 1-30.165334-30.165334l106.666667-106.666666A21.354667 21.354667 0 0 1 490.666667 256a11.050667 11.050667 0 0 1 1.194666 0.042667 21.290667 21.290667 0 0 1 15.466667 7.957333l170.666667 213.333333a21.333333 21.333333 0 0 1-33.322667 26.666667z"  horiz-adv-x="1024" />

    
    <glyph glyph-name="Arrowrightnext" unicode="&#59862;" d="M512 810.666667a426.666667 426.666667 0 1 1 426.666667-426.666667A427.136 427.136 0 0 1 512 810.666667z m0-810.666667a384 384 0 1 0 384 384 384.426667 384.426667 0 0 0-384-384zM462.037333 549.397333a21.333333 21.333333 0 1 1-28.074666-32.128L586.282667 384l-152.32-133.269333a21.333333 21.333333 0 0 1 28.074666-32.128l170.666667 149.333333a21.333333 21.333333 0 0 1 0 32.128z"  horiz-adv-x="1024" />

    
    <glyph glyph-name="Addnewcompose1" unicode="&#59863;" d="M661.333333 405.333333h-128v128a21.333333 21.333333 0 0 1-42.666666 0v-128h-128a21.333333 21.333333 0 0 1 0-42.666666h128v-128a21.333333 21.333333 0 0 1 42.666666 0v128h128a21.333333 21.333333 0 0 1 0 42.666666zM512 810.666667a426.666667 426.666667 0 1 1 426.666667-426.666667A427.157333 427.157333 0 0 1 512 810.666667z m0-810.666667a384 384 0 1 0 384 384 384.426667 384.426667 0 0 0-384-384z"  horiz-adv-x="1024" />

    
    <glyph glyph-name="Bookmarkdeleteweb" unicode="&#59864;" d="M704 810.666667H320a106.773333 106.773333 0 0 1-106.666667-106.666667v-725.333333a21.333333 21.333333 0 0 1 11.925334-19.114667 20.970667 20.970667 0 0 1 22.4 2.218667L512 165.098667l264.32-203.328A21.312 21.312 0 0 1 789.333333-42.666667a20.906667 20.906667 0 0 1 9.408 2.197334 21.333333 21.333333 0 0 1 11.925334 19.136V704a106.773333 106.773333 0 0 1-106.666667 106.666667z m64-788.650667l-242.986667 186.922667a21.333333 21.333333 0 0 1-26.026666 0L256 22.016V704a64.064 64.064 0 0 0 64 64h384a64.064 64.064 0 0 0 64-64zM618.666667 512H405.333333a21.333333 21.333333 0 0 1 0-42.666667h213.333334a21.333333 21.333333 0 0 1 0 42.666667z"  horiz-adv-x="1024" />

    
    <glyph glyph-name="Zoominmagnifier" unicode="&#59865;" d="M576 768a319.509333 319.509333 0 0 1-240.533333-530.368l-201.216-201.216a21.333333 21.333333 0 1 1 30.165333-30.165333l201.216 201.216A319.808 319.808 0 1 1 576 768z m0-597.333333a277.333333 277.333333 0 1 0 277.333333 277.333333 277.653333 277.653333 0 0 0-277.333333-277.333333zM661.333333 469.333333h-64v64a21.333333 21.333333 0 0 1-42.666666 0v-64h-64a21.333333 21.333333 0 0 1 0-42.666666h64v-64a21.333333 21.333333 0 0 1 42.666666 0v64h64a21.333333 21.333333 0 0 1 0 42.666666z"  horiz-adv-x="1024" />

    
    <glyph glyph-name="Sendpaperplane" unicode="&#59866;" d="M868.416 740.416a21.418667 21.418667 0 0 1-22.165333 5.056l-725.333334-256a21.333333 21.333333 0 0 1 0.042667-40.256l337.877333-118.4 118.378667-337.877333a21.333333 21.333333 0 0 1 20.074667-14.272H597.333333a21.333333 21.333333 0 0 1 20.117334 14.229333l256 725.333333a21.44 21.44 0 0 1-5.034667 22.186667zM597.418667 64.298667l-97.28 277.674666 111.189333 111.210667a21.333333 21.333333 0 0 1-30.165333 30.165333l-111.189334-111.210666-277.632 97.28L818.389333 690.368z"  horiz-adv-x="1024" />

    
    <glyph glyph-name="deleteclosecancel" unicode="&#59867;" d="M512 810.666667a426.666667 426.666667 0 1 1 426.666667-426.666667A427.157333 427.157333 0 0 1 512 810.666667z m0-810.666667a384 384 0 1 0 384 384 384.426667 384.426667 0 0 0-384-384zM633.749333 505.749333a21.333333 21.333333 0 0 1-30.165333 0L512 414.165333l-91.584 91.584a21.333333 21.333333 0 0 1-30.165333-30.165333L481.834667 384l-91.584-91.584a21.333333 21.333333 0 1 1 30.165333-30.165333L512 353.834667l91.584-91.584a21.333333 21.333333 0 0 1 30.165333 30.165333L542.165333 384l91.584 91.584a21.333333 21.333333 0 0 1 0 30.165333z"  horiz-adv-x="1024" />

    
    <glyph glyph-name="Settingscontroloptions" unicode="&#59868;" d="M512 533.269333A149.269333 149.269333 0 1 1 661.269333 384 149.44 149.44 0 0 1 512 533.269333z m0-255.893333A106.624 106.624 0 1 0 618.624 384 106.752 106.752 0 0 0 512 277.376zM858.090667 341.397333a53.866667 53.866667 0 0 0 0 85.205334 96.448 96.448 0 0 1-71.232 172.010666 53.824 53.824 0 0 0-60.245334 60.245334 96.448 96.448 0 0 1-172.010666 71.253333 55.509333 55.509333 0 0 0-85.205334 0 96.448 96.448 0 0 1-172.010666-71.253333 53.824 53.824 0 0 0-60.245334-60.245334 96.448 96.448 0 0 1-71.253333-172.010666 53.866667 53.866667 0 0 0 0-85.205334 96.448 96.448 0 0 1 71.253333-172.010666 53.824 53.824 0 0 0 60.245334-60.245334 94.336 94.336 0 0 1 58.773333-101.397333A99.605333 99.605333 0 0 1 394.24 0a94.357333 94.357333 0 0 1 75.157333 37.909333 55.509333 55.509333 0 0 0 85.205334 0 96.448 96.448 0 0 1 172.010666 71.253334 53.824 53.824 0 0 0 60.245334 60.224 96.448 96.448 0 0 1 71.253333 172.010666z m-9.258667-96.917333a52.309333 52.309333 0 0 0-56.554667-32.768 96.512 96.512 0 0 1-107.968-107.989333A53.824 53.824 0 0 0 588.352 64a99.413333 99.413333 0 0 1-152.682667 0 53.824 53.824 0 0 0-95.957333 39.744 96.533333 96.533333 0 0 1-95.509333 108.778667 100.885333 100.885333 0 0 1-12.48-0.789334A53.824 53.824 0 0 0 192 307.669333a96.490667 96.490667 0 0 1 0 152.682667 53.824 53.824 0 0 0 39.744 95.957333 96.512 96.512 0 0 1 107.968 107.946667 53.824 53.824 0 0 0 95.978667 39.765333 99.413333 99.413333 0 0 1 152.682666 0 53.824 53.824 0 0 0 95.957334-39.744 96.512 96.512 0 0 1 107.946666-107.968 53.824 53.824 0 0 0 39.765334-95.957333 96.490667 96.490667 0 0 1 0-152.682667 52.053333 52.053333 0 0 0 16.810666-63.189333z"  horiz-adv-x="1024" />

    
    <glyph glyph-name="shieldprotectionsecurity" unicode="&#59869;" d="M883.754667 616.618667l-362.666667 170.666666a21.034667 21.034667 0 0 1-18.176 0l-362.666667-170.666666a21.312 21.312 0 0 1-12.245333-19.306667c0-475.776 346.602667-618.666667 384-618.666667s384 142.890667 384 618.666667a21.312 21.312 0 0 1-12.245333 19.306667zM513.578667 21.248c-3.392 0.490667-336.341333 106.666667-342.826667 562.56L512 744.426667l341.226667-160.576c-6.464-455.914667-339.370667-562.090667-339.626667-562.581334zM441.749333 505.728a21.333333 21.333333 0 0 1-30.165333-30.165333L481.834667 405.333333l-70.250667-70.250666a21.333333 21.333333 0 1 1 30.165333-30.165334L512 375.146667l70.250667-70.250667a21.333333 21.333333 0 1 1 30.165333 30.165333L542.165333 405.333333l70.250667 70.250667a21.333333 21.333333 0 0 1-30.165333 30.165333L512 435.498667z"  horiz-adv-x="1024" />

    
    <glyph glyph-name="Cameracapturepicture" unicode="&#59870;" d="M853.333333 618.666667h-136.149333l-36.778667 73.536A21.333333 21.333333 0 0 1 661.333333 704H362.666667a21.333333 21.333333 0 0 1-19.072-11.797333L306.794667 618.666667H170.666667a85.418667 85.418667 0 0 1-85.333334-85.333334v-384a85.418667 85.418667 0 0 1 85.333334-85.333333h682.666666a85.418667 85.418667 0 0 1 85.333334 85.333333V533.333333a85.418667 85.418667 0 0 1-85.333334 85.333334z m42.666667-469.333334a42.730667 42.730667 0 0 0-42.666667-42.666666H170.666667a42.730667 42.730667 0 0 0-42.666667 42.666666V533.333333a42.730667 42.730667 0 0 0 42.666667 42.666667h149.333333a21.333333 21.333333 0 0 1 19.072 11.797333L375.872 661.333333h272.298667l36.757333-73.536A21.333333 21.333333 0 0 1 704 576h149.333333a42.730667 42.730667 0 0 0 42.666667-42.666667zM512 512a149.333333 149.333333 0 1 1 149.333333-149.333333 149.504 149.504 0 0 1-149.333333 149.333333z m0-256a106.666667 106.666667 0 1 0 106.666667 106.666667 106.794667 106.794667 0 0 0-106.666667-106.666667z"  horiz-adv-x="1024" />

    
    <glyph glyph-name="clipboardnotedocument" unicode="&#59871;" d="M746.666667 768h-64V789.333333a21.333333 21.333333 0 0 1-21.333334 21.333334H362.666667a21.333333 21.333333 0 0 1-21.333334-21.333334v-21.333333h-64a106.773333 106.773333 0 0 1-106.666666-106.666667v-597.333333a106.773333 106.773333 0 0 1 106.666666-106.666667h469.333334a106.773333 106.773333 0 0 1 106.666666 106.666667V661.333333a106.773333 106.773333 0 0 1-106.666666 106.666667zM384 768h256v-42.666667H384z m426.666667-704a64.064 64.064 0 0 0-64-64H277.333333a64.064 64.064 0 0 0-64 64V661.333333a64.064 64.064 0 0 0 64 64h64v-21.333333a21.333333 21.333333 0 0 1 21.333334-21.333333h298.666666a21.333333 21.333333 0 0 1 21.333334 21.333333V725.333333h64a64.064 64.064 0 0 0 64-64zM661.333333 554.666667H362.666667a21.333333 21.333333 0 0 1 0-42.666667h298.666666a21.333333 21.333333 0 0 1 0 42.666667zM661.333333 426.666667H362.666667a21.333333 21.333333 0 0 1 0-42.666667h298.666666a21.333333 21.333333 0 0 1 0 42.666667zM661.333333 298.666667H362.666667a21.333333 21.333333 0 0 1 0-42.666667h298.666666a21.333333 21.333333 0 0 1 0 42.666667zM533.333333 170.666667h-170.666666a21.333333 21.333333 0 0 1 0-42.666667h170.666666a21.333333 21.333333 0 0 1 0 42.666667z"  horiz-adv-x="1024" />

    
    <glyph glyph-name="Downloadinterfacedownloading" unicode="&#59872;" d="M874.666667 213.333333a21.333333 21.333333 0 0 1-21.333334-21.333333v-149.333333H170.666667v149.333333a21.333333 21.333333 0 0 1-42.666667 0v-170.666667a21.333333 21.333333 0 0 1 21.333333-21.333333h725.333334a21.333333 21.333333 0 0 1 21.333333 21.333333v170.666667a21.333333 21.333333 0 0 1-21.333333 21.333333zM497.834667 218.709333a21.354667 21.354667 0 0 1 28.330666 0l192 170.666667a21.333333 21.333333 0 0 1-28.330666 31.914667L533.333333 282.176V746.666667a21.333333 21.333333 0 0 1-42.666666 0v-464.490667l-156.501334 139.114667a21.333333 21.333333 0 0 1-28.330666-31.914667z"  horiz-adv-x="1024" />

    
    <glyph glyph-name="Exitfullscreenminimizeshrink" unicode="&#59873;" d="M661.333333 512h170.666667a21.333333 21.333333 0 0 1 0 42.666667h-119.168l176.917333 176.917333a21.333333 21.333333 0 1 1-30.165333 30.165333L682.666667 584.832V704a21.333333 21.333333 0 0 1-42.666667 0v-170.666667a21.333333 21.333333 0 0 1 21.333333-21.333333zM362.666667 256H192a21.333333 21.333333 0 0 1 0-42.666667h119.168l-176.917333-176.917333a21.333333 21.333333 0 1 1 30.165333-30.165333L341.333333 183.168V64a21.333333 21.333333 0 0 1 42.666667 0v170.666667a21.333333 21.333333 0 0 1-21.333333 21.333333zM712.832 213.333333H832a21.333333 21.333333 0 0 1 0 42.666667h-170.666667a21.333333 21.333333 0 0 1-21.333333-21.333333v-170.666667a21.333333 21.333333 0 0 1 42.666667 0v119.168l176.917333-176.917333a21.333333 21.333333 0 0 1 30.165333 30.165333zM362.666667 725.333333a21.333333 21.333333 0 0 1-21.333334-21.333333v-119.168L164.416 761.749333a21.333333 21.333333 0 0 1-30.165333-30.165333L311.168 554.666667H192a21.333333 21.333333 0 0 1 0-42.666667h170.666667a21.333333 21.333333 0 0 1 21.333333 21.333333V704a21.333333 21.333333 0 0 1-21.333333 21.333333z"  horiz-adv-x="1024" />

    
    <glyph glyph-name="Cloudstorageserver" unicode="&#59874;" d="M810.666667 426.666667c-1.130667 0-2.218667 0-3.328-0.042667a298.474667 298.474667 0 0 1-565.397334 84.906667A213.333333 213.333333 0 0 1 256 85.333333h554.666667a170.666667 170.666667 0 0 1 0 341.333334z m0-298.666667H256a170.666667 170.666667 0 0 0 0 341.333333 21.333333 21.333333 0 0 1 19.690667 13.12 255.808 255.808 0 0 0 491.392-80.832 21.376 21.376 0 0 1 24.576-19.626666A123.904 123.904 0 0 0 810.666667 384a128 128 0 0 0 0-256z"  horiz-adv-x="1024" />

    
    <glyph glyph-name="Clouddownloadstorage" unicode="&#59875;" d="M605.333333 123.328L533.333333 65.728V362.666667a21.333333 21.333333 0 0 1-42.666666 0v-296.938667l-72 57.6a21.333333 21.333333 0 0 1-26.666667-33.322667l106.666667-85.333333a21.376 21.376 0 0 1 26.666666 0l106.666667 85.333333a21.333333 21.333333 0 1 1-26.666667 33.322667zM810.666667 512c-1.130667 0-2.24 0-3.328-0.042667a298.496 298.496 0 0 1-565.418667 84.906667A213.333333 213.333333 0 0 1 256 170.666667h21.333333a21.333333 21.333333 0 0 1 0 42.666666h-21.333333a170.666667 170.666667 0 0 0 0 341.333334 21.333333 21.333333 0 0 1 19.712 13.12 255.786667 255.786667 0 0 0 491.370667-80.832 21.333333 21.333333 0 0 1 24.533333-19.626667A124.224 124.224 0 0 0 810.666667 469.333333a128 128 0 0 0 0-256h-64a21.333333 21.333333 0 0 1 0-42.666666h64a170.666667 170.666667 0 0 1 0 341.333333z"  horiz-adv-x="1024" />

    
    <glyph glyph-name="Dislikeunlikethumbdown" unicode="&#59876;" d="M920.085333 360.256L865.706667 659.2A106.496 106.496 0 0 1 760.917333 746.666667H405.205333A106.133333 106.133333 0 0 1 320 703.381333 106.346667 106.346667 0 0 1 128 640v-341.333333a106.432 106.432 0 0 1 209.429333-27.050667c188.202667-54.186667 188.778667-149.290667 188.778667-213.162667 0-33.664 0-79.786667 49.792-79.786666a106.944 106.944 0 0 1 87.424 47.573333c35.989333 49.962667 45.525333 129.429333 26.24 208.426667h125.568a106.538667 106.538667 0 0 1 104.832 125.568zM298.666667 298.666667a64 64 0 0 0-128 0V640a64 64 0 0 0 128 0z m565.632 1.621333a63.701333 63.701333 0 0 0-49.066667-22.954667H661.333333a21.376 21.376 0 0 1-20.266666-28.074666c24.682667-74.048 19.776-153.642667-12.224-198.058667A63.765333 63.765333 0 0 0 576 21.333333a33.962667 33.962667 0 0 0-4.053333 0.298667 117.418667 117.418667 0 0 0-3.072 36.821333c0 68.224-0.64 193.685333-227.541334 256.32V640.128A63.957333 63.957333 0 0 0 405.205333 704h355.712a63.786667 63.786667 0 0 0 62.784-52.458667l54.378667-298.965333a63.509333 63.509333 0 0 0-13.781333-52.266667z"  horiz-adv-x="1024" />

    
    <glyph glyph-name="Uploadinterfaceuploading" unicode="&#59877;" d="M874.666667 213.333333a21.333333 21.333333 0 0 1-21.333334-21.333333v-149.333333H170.666667v149.333333a21.333333 21.333333 0 0 1-42.666667 0v-170.666667a21.333333 21.333333 0 0 1 21.333333-21.333333h725.333334a21.333333 21.333333 0 0 1 21.333333 21.333333v170.666667a21.333333 21.333333 0 0 1-21.333333 21.333333zM334.165333 560.042667L490.666667 699.157333V234.666667a21.333333 21.333333 0 0 1 42.666666 0V699.157333l156.501334-139.114666a21.333333 21.333333 0 0 1 28.330666 31.914666l-192 170.666667a21.354667 21.354667 0 0 1-28.330666 0l-192-170.666667a21.333333 21.333333 0 0 1 28.330666-31.914666z"  horiz-adv-x="1024" />

    
    <glyph glyph-name="Deleteremovehide" unicode="&#59878;" d="M661.333333 405.333333H362.666667a21.333333 21.333333 0 0 1 0-42.666666h298.666666a21.333333 21.333333 0 0 1 0 42.666666zM512 810.666667a426.666667 426.666667 0 1 1 426.666667-426.666667A427.157333 427.157333 0 0 1 512 810.666667z m0-810.666667a384 384 0 1 0 384 384 384.426667 384.426667 0 0 0-384-384z"  horiz-adv-x="1024" />

    
    <glyph glyph-name="Bookmarktagweb" unicode="&#59879;" d="M789.333333-42.666667a21.312 21.312 0 0 0-13.013333 4.437334L512 165.098667l-264.32-203.328a20.970667 20.970667 0 0 0-22.421333-2.218667 21.333333 21.333333 0 0 0-11.925334 19.136V704a106.773333 106.773333 0 0 0 106.666667 106.666667h384a106.773333 106.773333 0 0 0 106.666667-106.666667v-725.333333a21.333333 21.333333 0 0 0-11.925334-19.136 20.906667 20.906667 0 0 0-9.408-2.197334zM512 213.333333a21.226667 21.226667 0 0 0 13.013333-4.394666L768 22.016V704a64.064 64.064 0 0 1-64 64H320a64.064 64.064 0 0 1-64-64v-682.026667l242.986667 186.944A21.226667 21.226667 0 0 0 512 213.333333z"  horiz-adv-x="1024" />

    
    <glyph glyph-name="Homehomepagemenu" unicode="&#59880;" d="M874.666667 0H618.666667a21.333333 21.333333 0 0 0-21.333334 21.333333V256h-170.666666v-234.666667a21.333333 21.333333 0 0 0-21.333334-21.333333H149.333333a21.333333 21.333333 0 0 0-21.333333 21.333333V490.666667a21.376 21.376 0 0 0 9.024 17.429333l362.666667 256a21.354667 21.354667 0 0 0 24.618666 0l362.666667-256A21.376 21.376 0 0 0 896 490.666667v-469.333334a21.333333 21.333333 0 0 0-21.333333-21.333333z m-234.666667 42.666667h213.333333V479.594667L512 720.554667 170.666667 479.594667V42.666667h213.333333V277.333333a21.333333 21.333333 0 0 0 21.333333 21.333334h213.333334a21.333333 21.333333 0 0 0 21.333333-21.333334z"  horiz-adv-x="1024" />

    
    <glyph glyph-name="Filterfunnelsort" unicode="&#59881;" d="M872.149333 756.736A21.333333 21.333333 0 0 1 853.333333 768H170.666667a21.333333 21.333333 0 0 1-17.749334-33.173333L405.333333 356.202667V21.333333a21.333333 21.333333 0 0 1 21.333334-21.333333 20.8 20.8 0 0 1 5.162666 0.64l170.666667 42.666667A21.333333 21.333333 0 0 1 618.666667 64V356.202667L871.082667 734.826667a21.354667 21.354667 0 0 1 1.066666 21.909333zM579.584 374.506667A21.333333 21.333333 0 0 1 576 362.666667v-282.005334l-128-32V362.666667a21.333333 21.333333 0 0 1-3.584 11.84L210.517333 725.333333h602.965334z"  horiz-adv-x="1024" />

    
    <glyph glyph-name="Flagmarkpoint" unicode="&#59882;" d="M798.869333 760.533333a21.290667 21.290667 0 0 1-22.336-2.005333c-84.949333-63.722667-195.84-33.856-303.082666-4.970667-94.954667 25.6-184.576 49.706667-250.624 5.653334a21.397333 21.397333 0 0 1-9.493334-17.749334v-725.333333a21.333333 21.333333 0 0 1 42.666667 0v328.32c50.389333 25.386667 126.08 5.546667 206.336-16.064a754.624 754.624 0 0 1 190.869333-34.261333 239.914667 239.914667 0 0 1 148.928 46.293333 21.333333 21.333333 0 0 1 8.533334 17.066667v384a21.376 21.376 0 0 1-11.797334 19.050666zM768 368.490667c-83.754667-55.68-190.869333-26.88-294.549333 1.066666a654.997333 654.997333 0 0 1-160.618667 30.08 180.416 180.416 0 0 1-56.832-8.341333V729.216c50.282667 25.130667 126.250667 4.714667 206.336-16.853333 99.498667-26.773333 210.773333-56.725333 305.664-9.130667z"  horiz-adv-x="1024" />

    
    <glyph glyph-name="Clouduploadstorage" unicode="&#59883;" d="M525.333333 379.328a21.312 21.312 0 0 1-26.666666 0l-106.666667-85.333333a21.333333 21.333333 0 0 1 26.666667-33.322667l72 57.6V21.333333a21.333333 21.333333 0 0 1 42.666666 0V318.272l72-57.6a21.333333 21.333333 0 1 1 26.666667 33.322667zM810.666667 512c-1.130667 0-2.218667 0-3.328-0.042667a298.474667 298.474667 0 0 1-565.397334 84.906667A213.333333 213.333333 0 0 1 256 170.666667h21.333333a21.333333 21.333333 0 0 1 0 42.666666h-21.333333a170.666667 170.666667 0 0 0 0 341.333334 21.333333 21.333333 0 0 1 19.690667 13.12 255.808 255.808 0 0 0 491.392-80.832 21.376 21.376 0 0 1 24.576-19.626667A123.904 123.904 0 0 0 810.666667 469.333333a128 128 0 0 0 0-256h-64a21.333333 21.333333 0 0 1 0-42.666666h64a170.666667 170.666667 0 0 1 0 341.333333z"  horiz-adv-x="1024" />

    
    <glyph glyph-name="Computerscreenmonitor" unicode="&#59884;" d="M832 768H192a106.773333 106.773333 0 0 1-106.666667-106.666667v-426.666666a106.773333 106.773333 0 0 1 106.666667-106.666667h298.666667v-85.333333h-128a21.333333 21.333333 0 0 1 0-42.666667h298.666666a21.333333 21.333333 0 0 1 0 42.666667h-128v85.333333h298.666667a106.773333 106.773333 0 0 1 106.666667 106.666667V661.333333a106.773333 106.773333 0 0 1-106.666667 106.666667z m64-533.333333a64.064 64.064 0 0 0-64-64H192a64.064 64.064 0 0 0-64 64V661.333333a64.064 64.064 0 0 0 64 64h640a64.064 64.064 0 0 0 64-64z"  horiz-adv-x="1024" />

    
    <glyph glyph-name="Fullscreenmaximizeexpand" unicode="&#59885;" d="M874.666667 768h-170.666667a21.333333 21.333333 0 0 1 0-42.666667h119.168l-176.917333-176.917333a21.333333 21.333333 0 1 1 30.165333-30.165333L853.333333 695.168V576a21.333333 21.333333 0 0 1 42.666667 0V746.666667a21.333333 21.333333 0 0 1-21.333333 21.333333zM347.584 249.749333L170.666667 72.832V192a21.333333 21.333333 0 0 1-42.666667 0v-170.666667a21.333333 21.333333 0 0 1 21.333333-21.333333h170.666667a21.333333 21.333333 0 0 1 0 42.666667H200.832l176.917333 176.917333a21.333333 21.333333 0 0 1-30.165333 30.165333zM874.666667 213.333333a21.333333 21.333333 0 0 1-21.333334-21.333333v-119.168l-176.917333 176.917333a21.333333 21.333333 0 0 1-30.165333-30.165333L823.168 42.666667H704a21.333333 21.333333 0 0 1 0-42.666667h170.666667a21.333333 21.333333 0 0 1 21.333333 21.333333v170.666667a21.333333 21.333333 0 0 1-21.333333 21.333333zM200.832 725.333333H320a21.333333 21.333333 0 0 1 0 42.666667H149.333333a21.333333 21.333333 0 0 1-21.333333-21.333333v-170.666667a21.333333 21.333333 0 0 1 42.666667 0V695.168l176.917333-176.917333a21.333333 21.333333 0 0 1 30.165333 30.165333z"  horiz-adv-x="1024" />

    
    <glyph glyph-name="Favoritestarrate" unicode="&#59886;" d="M723.605333-4.565333a62.890667 62.890667 0 0 0-29.354666 7.317333L512 98.538667l-182.250667-95.786667a62.976 62.976 0 0 0-91.370666 66.389333l34.773333 202.922667-147.413333 143.722667a62.976 62.976 0 0 0 34.901333 107.434666l203.733333 29.610667 91.136 184.618667a62.976 62.976 0 0 0 112.96 0l91.114667-184.64 203.776-29.589334a62.976 62.976 0 0 0 34.901333-107.434666l-147.413333-143.722667 34.773333-202.922667a63.125333 63.125333 0 0 0-62.016-73.706666zM512 143.978667a21.12 21.12 0 0 0 9.92-2.474667l192.170667-101.013333a20.330667 20.330667 0 0 1 29.482666 21.44l-36.693333 213.973333a21.333333 21.333333 0 0 0 6.144 18.88l155.456 151.530667a20.330667 20.330667 0 0 1-11.242667 34.688L642.346667 512.213333a21.290667 21.290667 0 0 0-16.064 11.669334l-96.064 194.688a20.949333 20.949333 0 0 1-36.48 0l-96.064-194.688a21.290667 21.290667 0 0 0-16.064-11.669334L166.762667 481.002667a20.330667 20.330667 0 0 1-11.242667-34.688l155.456-151.530667a21.333333 21.333333 0 0 0 6.122667-18.88l-36.693334-213.973333a20.330667 20.330667 0 0 1 29.504-21.44l192.170667 101.034666a21.12 21.12 0 0 0 9.92 2.453334z"  horiz-adv-x="1024" />

    
    <glyph glyph-name="Arrowtopup" unicode="&#59887;" d="M512 810.666667a426.666667 426.666667 0 1 1 426.666667-426.666667A427.136 427.136 0 0 1 512 810.666667z m0-810.666667a384 384 0 1 0 384 384 384.426667 384.426667 0 0 0-384-384zM528.064 504.704a21.994667 21.994667 0 0 1-32.128 0l-149.333333-170.666667a21.333333 21.333333 0 0 1 32.128-28.074666L512 458.282667l133.269333-152.32a21.333333 21.333333 0 0 1 32.128 28.074666z"  horiz-adv-x="1024" />

    
    <glyph glyph-name="Movedraginterface" unicode="&#59888;" d="M932.416 399.082667l-85.333333 85.333333a21.333333 21.333333 0 0 1-30.165334-30.165333L865.834667 405.333333H533.333333V737.834667l48.917334-48.917334a21.333333 21.333333 0 0 1 30.165333 30.165334l-85.333333 85.333333a21.333333 21.333333 0 0 1-30.165334 0l-85.333333-85.333333a21.333333 21.333333 0 0 1 30.165333-30.165334L490.666667 737.834667V405.333333H158.165333l48.917334 48.917334a21.333333 21.333333 0 0 1-30.165334 30.165333l-85.333333-85.333333a21.333333 21.333333 0 0 1 0-30.165334l85.333333-85.333333a21.333333 21.333333 0 0 1 30.165334 30.165333L158.165333 362.666667H490.666667v-332.501334l-48.917334 48.917334a21.333333 21.333333 0 0 1-30.165333-30.165334l85.333333-85.333333a21.333333 21.333333 0 0 1 30.165334 0l85.333333 85.333333a21.333333 21.333333 0 0 1-30.165333 30.165334L533.333333 30.165333V362.666667h332.501334l-48.917334-48.917334a21.333333 21.333333 0 1 1 30.165334-30.165333l85.333333 85.333333a21.333333 21.333333 0 0 1 0 30.165334z"  horiz-adv-x="1024" />

    
    <glyph glyph-name="Locationpinmarker" unicode="&#59889;" d="M512 810.666667A341.717333 341.717333 0 0 1 170.666667 469.333333c0-283.946667 302.997333-512 341.333333-512s341.333333 228.053333 341.333333 512A341.717333 341.717333 0 0 1 512 810.666667z m0-809.429334C462.933333 25.088 213.333333 224.064 213.333333 469.333333a298.666667 298.666667 0 0 0 597.333334 0c0-245.269333-249.6-444.245333-298.666667-468.096zM512 618.666667a149.333333 149.333333 0 1 1 149.333333-149.333334 149.504 149.504 0 0 1-149.333333 149.333334z m0-256a106.666667 106.666667 0 1 0 106.666667 106.666666 106.773333 106.773333 0 0 0-106.666667-106.666666z"  horiz-adv-x="1024" />

    
    <glyph glyph-name="hideinvisiblehidden" unicode="&#59890;" d="M746.986667 588.8l100.096 100.117333a21.333333 21.333333 0 0 1-30.165334 30.165334l-112.853333-112.853334A562.858667 562.858667 0 0 1 512 640C220.416 640 42.666667 418.346667 42.666667 384c0-23.765333 85.248-137.173333 234.346666-204.8l-100.096-100.117333a21.333333 21.333333 0 1 1 30.165334-30.165334l112.853333 112.853334A562.858667 562.858667 0 0 1 512 128c291.584 0 469.333333 221.653333 469.333333 256 0 23.765333-85.248 137.173333-234.346666 204.8zM86.869333 384A541.354667 541.354667 0 0 0 512 597.333333a513.664 513.664 0 0 0 158.122667-25.045333l-69.12-69.12A147.904 147.904 0 0 1 512 533.333333a149.504 149.504 0 0 1-149.333333-149.333333 147.904 147.904 0 0 1 30.144-89.024l-83.093334-83.093333A532.992 532.992 0 0 0 86.869333 384zM618.666667 384a106.496 106.496 0 0 0-165.397334-88.896l147.626667 147.626667A105.941333 105.941333 0 0 0 618.666667 384z m-213.333334 0a106.496 106.496 0 0 0 165.397334 88.896l-147.626667-147.626667A105.941333 105.941333 0 0 0 405.333333 384z m106.666667-213.333333a513.685333 513.685333 0 0 0-158.122667 25.045333l69.12 69.12A147.904 147.904 0 0 1 512 234.666667a149.504 149.504 0 0 1 149.333333 149.333333 147.904 147.904 0 0 1-30.144 89.024l83.093334 83.093333A532.992 532.992 0 0 0 937.130667 384 541.354667 541.354667 0 0 0 512 170.666667z"  horiz-adv-x="1024" />

    
    <glyph glyph-name="notificationbellring" unicode="&#59891;" d="M847.104 100.416C768 179.498667 768 258.112 768 341.333333v106.666667a256.234667 256.234667 0 0 1-172.373333 241.706667A81.621333 81.621333 0 0 1 597.333333 704a85.333333 85.333333 0 0 1-170.666666 0 81.621333 81.621333 0 0 1 1.706666-14.293333A256.234667 256.234667 0 0 1 256 448v-106.666667c0-83.2 0-161.834667-79.082667-240.917333A21.333333 21.333333 0 0 1 192 64h234.666667a85.333333 85.333333 0 1 1 170.666666 0h234.666667a21.333333 21.333333 0 0 1 15.082667 36.416zM469.333333 704a42.666667 42.666667 0 0 0 85.333334 0c0-1.258667-0.810667-2.453333-0.938667-3.712a236.501333 236.501333 0 0 1-83.477333 0C470.144 701.546667 469.333333 702.762667 469.333333 704z m42.666667-682.666667a42.709333 42.709333 0 0 0-42.666667 42.666667h85.333334a42.709333 42.709333 0 0 0-42.666667-42.666667z m-273.088 85.333334C298.666667 185.984 298.666667 264.789333 298.666667 341.333333v106.666667a213.333333 213.333333 0 0 0 426.666666 0v-106.666667c0-76.544 0-155.328 59.733334-234.666666z"  horiz-adv-x="1024" />

    
    <glyph glyph-name="Monthdatecalendar" unicode="&#59892;" d="M789.333333 682.666667h-106.666666V704a21.333333 21.333333 0 0 1-42.666667 0v-21.333333H384V704a21.333333 21.333333 0 0 1-42.666667 0v-21.333333h-106.666666a106.773333 106.773333 0 0 1-106.666667-106.666667v-426.666667a106.773333 106.773333 0 0 1 106.666667-106.666666h554.666666a106.773333 106.773333 0 0 1 106.666667 106.666666V576a106.773333 106.773333 0 0 1-106.666667 106.666667z m64-533.333334a64.064 64.064 0 0 0-64-64H234.666667a64.064 64.064 0 0 0-64 64V469.333333h682.666666z m0 362.666667H170.666667v64a64.064 64.064 0 0 0 64 64h106.666666v-21.333333a21.333333 21.333333 0 0 1 42.666667 0v21.333333h256v-21.333333a21.333333 21.333333 0 0 1 42.666667 0v21.333333h106.666666a64.064 64.064 0 0 0 64-64z"  horiz-adv-x="1024" />

    
    <glyph glyph-name="Maptraveltrip" unicode="&#59893;" d="M843.946667 721.706667a21.333333 21.333333 0 0 1-19.861334 2.133333l-203.52-81.386667-204.266666 122.538667c-0.213333 0.128-0.277333-0.149333-0.490667-0.085333a21.077333 21.077333 0 0 1-18.389333 1.621333l-213.333334-85.333333a21.312 21.312 0 0 1-13.418666-19.818667v-597.333333a21.333333 21.333333 0 0 1 29.248-19.818667l203.52 81.429333 204.266666-122.56a21.333333 21.333333 0 0 1 18.88-1.536l213.333334 85.333334a21.312 21.312 0 0 1 13.418666 19.818666v597.333334a21.312 21.312 0 0 1-9.386666 17.664zM213.333333 646.933333l170.666667 68.266667V163.84l-170.666667-68.266667z m213.333334 62.08l170.666666-102.4v-547.562666l-170.666666 102.4zM810.666667 121.173333l-170.666667-68.266666V604.266667l170.666667 68.266666z"  horiz-adv-x="1024" />

    
    <glyph glyph-name="Gpsnavigationlocation" unicode="&#59894;" d="M917.333333 405.333333h-64c-0.384 0-0.704-0.213333-1.066666-0.213333A341.269333 341.269333 0 0 1 533.12 724.266667c0 0.384 0.213333 0.682667 0.213333 1.066666V789.333333a21.333333 21.333333 0 0 1-42.666666 0v-64c0-0.384 0.213333-0.704 0.213333-1.066666A341.269333 341.269333 0 0 1 171.733333 405.12c-0.362667 0-0.682667 0.213333-1.066666 0.213333H106.666667a21.333333 21.333333 0 0 1 0-42.666666h64c0.384 0 0.704 0.213333 1.066666 0.213333a341.269333 341.269333 0 0 1 319.146667-319.146667c0-0.384-0.213333-0.682667-0.213333-1.066666v-64a21.333333 21.333333 0 0 1 42.666666 0v64c0 0.384-0.213333 0.704-0.213333 1.066666a341.269333 341.269333 0 0 1 319.146667 319.146667c0.384 0 0.682667-0.213333 1.066666-0.213333h64a21.333333 21.333333 0 0 1 0 42.666666zM512 85.333333a298.666667 298.666667 0 1 0 298.666667 298.666667 299.008 299.008 0 0 0-298.666667-298.666667zM512 554.666667a170.666667 170.666667 0 1 1 170.666667-170.666667 170.858667 170.858667 0 0 1-170.666667 170.666667z m0-298.666667a128 128 0 1 0 128 128 128.149333 128.149333 0 0 0-128-128z"  horiz-adv-x="1024" />

    
    <glyph glyph-name="Likevotethumbup" unicode="&#59895;" d="M897.045333 495.082667A106.346667 106.346667 0 0 1 815.253333 533.333333h-125.589333c19.285333 78.997333 9.749333 158.464-26.24 208.426667A106.944 106.944 0 0 1 576 789.333333c-49.792 0-49.792-46.122667-49.792-79.786666 0-63.850667-0.576-158.976-188.778667-213.162667A106.432 106.432 0 0 1 128 469.333333v-341.333333a106.346667 106.346667 0 0 1 191.978667-63.381333A106.133333 106.133333 0 0 1 405.205333 21.333333h355.712a106.496 106.496 0 0 1 104.789334 87.466667l54.378666 298.965333a106.325333 106.325333 0 0 1-23.04 87.317334zM234.666667 64a64.064 64.064 0 0 0-64 64V469.333333a64 64 0 0 0 128 0v-341.333333a64.064 64.064 0 0 0-64-64z m643.413333 351.424l-54.378667-298.965333A63.786667 63.786667 0 0 0 760.917333 64H405.205333A63.957333 63.957333 0 0 0 341.333333 127.872V453.226667c226.901333 62.634667 227.541333 188.074667 227.541334 256.32a130.197333 130.197333 0 0 0 2.666666 36.586666A12.266667 12.266667 0 0 0 576 746.666667a63.765333 63.765333 0 0 0 52.842667-29.866667c32-44.416 36.906667-124.010667 12.245333-198.037333A21.376 21.376 0 0 1 661.333333 490.666667h153.92a63.850667 63.850667 0 0 0 62.826667-75.242667z"  horiz-adv-x="1024" />

    
    <glyph glyph-name="Unlocksecuritypadlock" unicode="&#59896;" d="M746.666667 469.333333H384v170.666667a128 128 0 0 0 256 0v-21.333333a21.333333 21.333333 0 0 1 42.666667 0v21.333333a170.666667 170.666667 0 0 1-341.333334 0v-170.666667h-64a106.773333 106.773333 0 0 1-106.666666-106.666666v-298.666667a106.773333 106.773333 0 0 1 106.666666-106.666667h469.333334a106.773333 106.773333 0 0 1 106.666666 106.666667V362.666667a106.773333 106.773333 0 0 1-106.666666 106.666666z m64-405.333333a64.064 64.064 0 0 0-64-64H277.333333a64.064 64.064 0 0 0-64 64V362.666667a64.064 64.064 0 0 0 64 64h469.333334a64.064 64.064 0 0 0 64-64zM512 298.666667a21.333333 21.333333 0 0 1-21.333333-21.333334v-128a21.333333 21.333333 0 0 1 42.666666 0v128a21.333333 21.333333 0 0 1-21.333333 21.333334z"  horiz-adv-x="1024" />

    
    <glyph glyph-name="Mailletterenvelope" unicode="&#59897;" d="M938.666667 597.333333a106.794667 106.794667 0 0 1-106.666667 106.666667H192a106.794667 106.794667 0 0 1-106.666667-106.666667v-426.666666a106.794667 106.794667 0 0 1 106.666667-106.666667h640a106.794667 106.794667 0 0 1 106.666667 106.666667zM192 661.333333h640a64.064 64.064 0 0 0 64-64v-66.965333l-384-161.685333-384 161.706666V597.333333a64.064 64.064 0 0 0 64 64z m640-554.666666H192a64.064 64.064 0 0 0-64 64V479.872l375.722667-158.208a21.354667 21.354667 0 0 1 16.554666 0L896 479.872V170.666667a64.064 64.064 0 0 0-64-64z"  horiz-adv-x="1024" />

    
    <glyph glyph-name="newstextarticle" unicode="&#59898;" d="M874.666667 768H277.333333a21.333333 21.333333 0 0 1-21.333333-21.333333v-106.666667H149.333333a21.333333 21.333333 0 0 1-21.333333-21.333333v-533.333334a85.44 85.44 0 0 1 85.333333-85.333333h576a106.773333 106.773333 0 0 1 106.666667 106.666667V746.666667a21.333333 21.333333 0 0 1-21.333333 21.333333zM170.666667 85.333333V597.333333h85.333333v-512a42.666667 42.666667 0 0 0-85.333333 0z m682.666666 21.333334a64.064 64.064 0 0 0-64-64H286.805333A84.352 84.352 0 0 1 298.666667 85.333333V725.333333h554.666666zM405.333333 597.333333h341.333334a21.333333 21.333333 0 0 1 0 42.666667H405.333333a21.333333 21.333333 0 0 1 0-42.666667zM405.333333 469.333333h341.333334a21.333333 21.333333 0 0 1 0 42.666667H405.333333a21.333333 21.333333 0 0 1 0-42.666667zM405.333333 341.333333h341.333334a21.333333 21.333333 0 0 1 0 42.666667H405.333333a21.333333 21.333333 0 0 1 0-42.666667zM405.333333 213.333333h341.333334a21.333333 21.333333 0 0 1 0 42.666667H405.333333a21.333333 21.333333 0 0 1 0-42.666667z"  horiz-adv-x="1024" />

    
    <glyph glyph-name="Filedocumentpaper" unicode="&#59899;" d="M825.749333 591.082667l-170.666666 170.666666A21.333333 21.333333 0 0 1 640 768H277.333333a85.418667 85.418667 0 0 1-85.333333-85.333333v-597.333334a85.418667 85.418667 0 0 1 85.333333-85.333333h469.333334a85.418667 85.418667 0 0 1 85.333333 85.333333V576a21.333333 21.333333 0 0 1-6.250667 15.082667zM661.333333 695.168L759.168 597.333333H661.333333zM746.666667 42.666667H277.333333a42.730667 42.730667 0 0 0-42.666666 42.666666V682.666667a42.730667 42.730667 0 0 0 42.666666 42.666666h341.333334v-149.333333a21.333333 21.333333 0 0 1 21.333333-21.333333h149.333333v-469.333334a42.730667 42.730667 0 0 0-42.666666-42.666666z"  horiz-adv-x="1024" />

    
    <glyph glyph-name="Documentpaperdraft" unicode="&#59900;" d="M746.666667 810.666667H277.333333a106.773333 106.773333 0 0 1-106.666666-106.666667v-640a106.773333 106.773333 0 0 1 106.666666-106.666667h469.333334a106.773333 106.773333 0 0 1 106.666666 106.666667V704a106.773333 106.773333 0 0 1-106.666666 106.666667z m64-746.666667a64.064 64.064 0 0 0-64-64H277.333333a64.064 64.064 0 0 0-64 64V704a64.064 64.064 0 0 0 64 64h469.333334a64.064 64.064 0 0 0 64-64zM661.333333 640H362.666667a21.333333 21.333333 0 0 1 0-42.666667h298.666666a21.333333 21.333333 0 0 1 0 42.666667zM661.333333 512H362.666667a21.333333 21.333333 0 0 1 0-42.666667h298.666666a21.333333 21.333333 0 0 1 0 42.666667zM661.333333 384H362.666667a21.333333 21.333333 0 0 1 0-42.666667h298.666666a21.333333 21.333333 0 0 1 0 42.666667zM490.666667 256h-128a21.333333 21.333333 0 0 1 0-42.666667h128a21.333333 21.333333 0 0 1 0 42.666667z"  horiz-adv-x="1024" />

    
    <glyph glyph-name="Editwritedraft" unicode="&#59901;" d="M889.749333 676.416l-85.333333 85.333333a21.333333 21.333333 0 0 1-30.165333 0l-256-256A21.333333 21.333333 0 0 1 512 490.666667v-85.333334a21.333333 21.333333 0 0 1 21.333333-21.333333h85.333334a21.333333 21.333333 0 0 1 15.082666 6.250667l256 256a21.333333 21.333333 0 0 1 0 30.165333zM609.834667 426.666667H554.666667v55.168l234.666666 234.666666L844.501333 661.333333zM832 426.666667a21.333333 21.333333 0 0 1-21.333333-21.333334v-320a42.709333 42.709333 0 0 0-42.666667-42.666666H213.333333a42.709333 42.709333 0 0 0-42.666666 42.666666V554.666667a42.709333 42.709333 0 0 0 42.666666 42.666666h234.666667a21.333333 21.333333 0 0 1 0 42.666667H213.333333a85.44 85.44 0 0 1-85.333333-85.333333v-469.333334a85.44 85.44 0 0 1 85.333333-85.333333h554.666667a85.44 85.44 0 0 1 85.333333 85.333333V405.333333a21.333333 21.333333 0 0 1-21.333333 21.333334z"  horiz-adv-x="1024" />

    
    <glyph glyph-name="Listmenuoptions" unicode="&#59902;" d="M192 640h640a21.333333 21.333333 0 0 1 0 42.666667H192a21.333333 21.333333 0 0 1 0-42.666667zM832 405.333333H192a21.333333 21.333333 0 0 1 0-42.666666h640a21.333333 21.333333 0 0 1 0 42.666666zM832 128H192a21.333333 21.333333 0 0 1 0-42.666667h640a21.333333 21.333333 0 0 1 0 42.666667z"  horiz-adv-x="1024" />

    
    <glyph glyph-name="Folderfilesarchive" unicode="&#59903;" d="M832 661.333333H542.165333l-79.082666 79.082667A21.333333 21.333333 0 0 1 448 746.666667H192a106.773333 106.773333 0 0 1-106.666667-106.666667v-512a106.773333 106.773333 0 0 1 106.666667-106.666667h640a106.773333 106.773333 0 0 1 106.666667 106.666667V554.666667a106.773333 106.773333 0 0 1-106.666667 106.666666zM192 704h247.168l79.082667-79.082667A21.333333 21.333333 0 0 1 533.333333 618.666667h298.666667a64.064 64.064 0 0 0 64-64v-64H128v149.333333a64.064 64.064 0 0 0 64 64z m640-640H192a64.064 64.064 0 0 0-64 64V448h768v-320a64.064 64.064 0 0 0-64-64z"  horiz-adv-x="1024" />

    
    <glyph glyph-name="Powershutdownstart" unicode="&#59904;" d="M512 629.333333a21.333333 21.333333 0 0 1 21.333333 21.333334v128a21.333333 21.333333 0 0 1-42.666666 0v-128a21.333333 21.333333 0 0 1 21.333333-21.333334zM624.917333 740.373333a21.312 21.312 0 1 1-12.501333-40.746666 341.333333 341.333333 0 1 0-200.832 0 21.312 21.312 0 1 1-12.501333 40.746666 384 384 0 1 1 225.834666 0z"  horiz-adv-x="1024" />

    
    <glyph glyph-name="Inboxemaildrawer" unicode="&#59905;" d="M935.850667 458.005333c-0.213333 0.426667 0.085333 0.426667-0.213334 0.96l-128 213.333334A21.269333 21.269333 0 0 1 789.333333 682.666667H234.666667a21.269333 21.269333 0 0 1-18.282667-10.368l-128-213.333334c-0.213333-0.362667 0.106667-0.384-0.042667-0.682666A20.778667 20.778667 0 0 1 85.333333 448v-341.333333a21.333333 21.333333 0 0 1 21.333334-21.333334h810.666666a21.333333 21.333333 0 0 1 21.333334 21.333334V448a20.8 20.8 0 0 1-2.816 10.005333zM246.741333 640h530.517334l102.4-170.666667H144.341333zM896 128H128V426.666667h768zM448 256h128a21.333333 21.333333 0 0 1 0 42.666667h-128a21.333333 21.333333 0 0 1 0-42.666667z"  horiz-adv-x="1024" />

    
    <glyph glyph-name="Locksecuritypadlock" unicode="&#59906;" d="M746.666667 469.333333h-64v170.666667a170.666667 170.666667 0 0 1-341.333334 0v-170.666667h-64a106.773333 106.773333 0 0 1-106.666666-106.666666v-298.666667a106.773333 106.773333 0 0 1 106.666666-106.666667h469.333334a106.773333 106.773333 0 0 1 106.666666 106.666667V362.666667a106.773333 106.773333 0 0 1-106.666666 106.666666z m-362.666667 170.666667a128 128 0 0 0 256 0v-170.666667H384z m426.666667-576a64.064 64.064 0 0 0-64-64H277.333333a64.064 64.064 0 0 0-64 64V362.666667a64.064 64.064 0 0 0 64 64h469.333334a64.064 64.064 0 0 0 64-64zM512 298.666667a21.333333 21.333333 0 0 1-21.333333-21.333334v-128a21.333333 21.333333 0 0 1 42.666666 0v128a21.333333 21.333333 0 0 1-21.333333 21.333334z"  horiz-adv-x="1024" />

    
    <glyph glyph-name="Bookmarkaddweb" unicode="&#59907;" d="M704 810.666667H320a106.773333 106.773333 0 0 1-106.666667-106.666667v-725.333333a21.333333 21.333333 0 0 1 11.925334-19.114667 20.970667 20.970667 0 0 1 22.4 2.218667L512 165.098667l264.32-203.328A21.312 21.312 0 0 1 789.333333-42.666667a20.906667 20.906667 0 0 1 9.408 2.197334 21.333333 21.333333 0 0 1 11.925334 19.136V704a106.773333 106.773333 0 0 1-106.666667 106.666667z m64-788.650667l-242.986667 186.922667a21.333333 21.333333 0 0 1-26.026666 0L256 22.016V704a64.064 64.064 0 0 0 64 64h384a64.064 64.064 0 0 0 64-64zM618.666667 512h-85.333334v85.333333a21.333333 21.333333 0 1 1-42.666666 0v-85.333333h-85.333334a21.333333 21.333333 0 0 1 0-42.666667h85.333334v-85.333333a21.333333 21.333333 0 1 1 42.666666 0v85.333333h85.333334a21.333333 21.333333 0 0 1 0 42.666667z"  horiz-adv-x="1024" />

    
    <glyph glyph-name="navigationdirectioncompass" unicode="&#59908;" d="M512 810.666667a426.666667 426.666667 0 1 1 426.666667-426.666667A427.178667 427.178667 0 0 1 512 810.666667z m21.333333-809.6V42.666667a21.333333 21.333333 0 0 1-42.666666 0v-41.6A383.872 383.872 0 0 0 129.066667 362.666667H170.666667a21.333333 21.333333 0 0 1 0 42.666666H129.066667A383.872 383.872 0 0 0 490.666667 766.933333V725.333333a21.333333 21.333333 0 0 1 42.666666 0V766.933333A383.872 383.872 0 0 0 894.933333 405.333333H853.333333a21.333333 21.333333 0 0 1 0-42.666666h41.6A383.872 383.872 0 0 0 533.333333 1.066667zM655.338667 553.792L424.533333 485.909333a21.333333 21.333333 0 0 1-14.464-14.442666L342.208 240.64a21.290667 21.290667 0 0 1 26.453333-26.453333L599.466667 282.090667a21.333333 21.333333 0 0 1 14.464 14.442666l67.861333 230.805334a21.312 21.312 0 0 1-26.453333 26.453333z m-79.04-234.090667l-182.122667-53.546666 53.546667 182.122666 182.122666 53.546667zM542.165333 353.834667a42.666667 42.666667 0 1 1-60.330666 0 42.666667 42.666667 0 0 1 60.330666 0z"  horiz-adv-x="1024" />

    
    <glyph glyph-name="Movedraginterface1" unicode="&#59909;" d="M932.416 399.082667l-85.333333 85.333333A21.333333 21.333333 0 0 1 810.666667 469.333333v-59.733333H537.6V682.666667H597.333333a21.333333 21.333333 0 0 1 15.082667 36.416l-85.333333 85.333333a21.333333 21.333333 0 0 1-30.165334 0l-85.333333-85.333333A21.333333 21.333333 0 0 1 426.666667 682.666667h59.733333v-273.066667H213.333333V469.333333a21.333333 21.333333 0 0 1-36.416 15.082667l-85.333333-85.333333a21.333333 21.333333 0 0 1 0-30.165334l85.333333-85.333333A21.333333 21.333333 0 0 1 213.333333 298.666667v59.733333h273.066667V85.333333H426.666667a21.333333 21.333333 0 0 1-15.082667-36.416l85.333333-85.333333a21.333333 21.333333 0 0 1 30.165334 0l85.333333 85.333333A21.333333 21.333333 0 0 1 597.333333 85.333333h-59.733333V358.4H810.666667V298.666667a21.333333 21.333333 0 0 1 36.416-15.082667l85.333333 85.333333a21.333333 21.333333 0 0 1 0 30.165334z"  horiz-adv-x="1024" />

    
    <glyph glyph-name="navigationdirectioncompass1" unicode="&#59910;" d="M874.666667 362.666667a21.333333 21.333333 0 1 0 0 42.666666h62.912A426.538667 426.538667 0 0 1 533.333333 809.578667V746.666667a21.333333 21.333333 0 0 0-42.666666 0V809.578667A426.538667 426.538667 0 0 1 86.421333 405.333333H149.333333a21.333333 21.333333 0 0 0 0-42.666666H86.421333A426.538667 426.538667 0 0 1 490.666667-41.578667V21.333333a21.333333 21.333333 0 1 0 42.666666 0v-62.912A426.538667 426.538667 0 0 1 937.578667 362.666667z m-192.853334 164.672L613.888 296.533333a21.333333 21.333333 0 0 0-14.464-14.464l-230.784-67.84A21.077333 21.077333 0 0 0 362.666667 213.333333a21.333333 21.333333 0 0 0-20.458667 27.328L410.090667 471.466667a21.333333 21.333333 0 0 0 14.442666 14.464L655.36 553.813333a21.312 21.312 0 0 0 26.453333-26.453333zM394.176 266.176l182.122667 53.546667 53.546666 182.122666-182.122666-53.546666z m87.658667 147.989333a42.666667 42.666667 0 1 0 0-60.330666 42.666667 42.666667 0 0 0 0 60.330666z"  horiz-adv-x="1024" />

    
    <glyph glyph-name="newstextarticle1" unicode="&#59911;" d="M874.666667 746.666667H320a21.333333 21.333333 0 0 1-21.333333-21.333334v-640a105.621333 105.621333 0 0 0-21.866667-64H789.333333a106.773333 106.773333 0 0 1 106.666667 106.666667V725.333333a21.333333 21.333333 0 0 1-21.333333 21.333334z m-128-554.666667H448a21.333333 21.333333 0 0 0 0 42.666667h298.666667a21.333333 21.333333 0 0 0 0-42.666667z m0 128H448a21.333333 21.333333 0 0 0 0 42.666667h298.666667a21.333333 21.333333 0 0 0 0-42.666667z m0 128H448a21.333333 21.333333 0 0 0 0 42.666667h298.666667a21.333333 21.333333 0 0 0 0-42.666667z m0 128H448a21.333333 21.333333 0 0 0 0 42.666667h298.666667a21.333333 21.333333 0 0 0 0-42.666667zM234.666667 661.333333H149.333333a21.333333 21.333333 0 0 1-21.333333-21.333333v-554.666667a64 64 0 0 1 128 0V640a21.333333 21.333333 0 0 1-21.333333 21.333333z"  horiz-adv-x="1024" />

    
    <glyph glyph-name="notificationbellring1" unicode="&#59912;" d="M847.104 143.082667C768 222.165333 768 258.112 768 341.333333v106.666667a256.234667 256.234667 0 0 1-172.373333 241.706667A81.621333 81.621333 0 0 1 597.333333 704a85.333333 85.333333 0 0 1-170.666666 0 81.621333 81.621333 0 0 1 1.706666-14.293333A256.234667 256.234667 0 0 1 256 448v-106.666667c0-83.2 0-119.168-79.082667-198.250666A21.333333 21.333333 0 0 1 192 106.666667h640a21.333333 21.333333 0 0 1 15.082667 36.416zM553.728 700.309333a236.501333 236.501333 0 0 1-83.456 0C470.144 701.525333 469.333333 702.741333 469.333333 704a42.666667 42.666667 0 0 0 85.333334 0c0-1.237333-0.810667-2.453333-0.938667-3.712zM512-21.333333a85.44 85.44 0 0 1 85.333333 85.333333h-170.666666a85.44 85.44 0 0 1 85.333333-85.333333z"  horiz-adv-x="1024" />

    
    <glyph glyph-name="securityprotectionshield1" unicode="&#59913;" d="M883.754667 616.618667l-362.666667 170.666666a21.034667 21.034667 0 0 1-18.176 0l-362.666667-170.666666a21.312 21.312 0 0 1-12.245333-19.306667c0-205.824 62.976-478.933333 362.965333-611.2 4.906667-2.154667 8.810667-3.861333 11.498667-5.205333a21.354667 21.354667 0 0 1 19.072 0c2.688 1.344 6.592 3.050667 11.52 5.205333C832.981333 118.4 896 391.488 896 597.333333a21.312 21.312 0 0 1-12.245333 19.306667z m-228.885334-147.2l-143.893333-162.176a25.664 25.664 0 0 0-18.282667-8.576h-0.853333a25.578667 25.578667 0 0 0-17.984 7.381333l-82.24 81.066667a25.6 25.6 0 1 0 35.968 36.416l63.018667-62.122667 125.973333 141.994667a25.6 25.6 0 1 0 38.293333-34.005334z"  horiz-adv-x="1024" />

    
    <glyph glyph-name="Sharelinksend1" unicode="&#59914;" d="M810.666667 768H213.333333a85.333333 85.333333 0 0 1-85.333333-85.333333v-597.333334a85.333333 85.333333 0 0 1 85.333333-85.333333h597.333334a85.333333 85.333333 0 0 1 85.333333 85.333333V682.666667a85.333333 85.333333 0 0 1-85.333333 85.333333z m-42.666667-618.666667a21.333333 21.333333 0 0 0-21.333333-21.333333H277.333333a21.333333 21.333333 0 0 0-21.333333 21.333333V618.666667a21.333333 21.333333 0 0 0 21.333333 21.333333h170.666667a21.333333 21.333333 0 0 0 0-42.666667h-149.333333v-426.666666h426.666666v149.333333a21.333333 21.333333 0 0 0 42.666667 0z m0 341.333334a21.333333 21.333333 0 0 0-42.666667 0v76.501333l-176.917333-176.917333a21.333333 21.333333 0 0 0-30.165333 30.165333L695.168 597.333333H618.666667a21.333333 21.333333 0 0 0 0 42.666667h128a21.333333 21.333333 0 0 0 21.333333-21.333333z"  horiz-adv-x="1024" />

    
    <glyph glyph-name="Refreshsyncreload1" unicode="&#59915;" d="M512 789.333333a405.333333 405.333333 0 1 1 405.333333-405.333333A405.333333 405.333333 0 0 1 512 789.333333z m216.96-540.885333a255.786667 255.786667 0 0 0-471.274667 107.072l-7.936-7.936a21.333333 21.333333 0 0 0-30.165333 30.165333l42.666667 42.666667a21.333333 21.333333 0 0 0 30.165333 0l42.666667-42.666667a21.333333 21.333333 0 1 0-30.165334-30.165333l-2.901333 2.901333a212.693333 212.693333 0 0 1 390.784-79.402666 21.333333 21.333333 0 1 0 36.16-22.613334z m32.789333 99.136a21.333333 21.333333 0 0 0-30.165333 0l-42.666667 42.666667a21.333333 21.333333 0 0 0 30.165334 30.165333l2.922666-2.901333a212.693333 212.693333 0 0 1-390.805333 79.402666 21.333333 21.333333 0 1 0-36.16 22.613334 255.786667 255.786667 0 0 0 471.274667-107.050667l7.936 7.936a21.333333 21.333333 0 0 0 30.165333-30.165333z"  horiz-adv-x="1024" />

    
    <glyph glyph-name="Uploadinterfaceuploading1" unicode="&#59916;" d="M810.666667 768H213.333333a85.333333 85.333333 0 0 1-85.333333-85.333333v-597.333334a85.333333 85.333333 0 0 1 85.333333-85.333333h597.333334a85.333333 85.333333 0 0 1 85.333333 85.333333V682.666667a85.333333 85.333333 0 0 1-85.333333 85.333333zM392.106667 549.973333l106.666666 85.333334a20.629333 20.629333 0 0 0 26.453334 0l106.666666-85.333334a21.141333 21.141333 0 0 0 3.413334-29.866666 20.394667 20.394667 0 0 0-16.64-8.106667 21.76 21.76 0 0 0-13.226667 4.693333L533.333333 574.293333V320a21.333333 21.333333 0 0 0-42.666666 0V574.293333l-72.106667-57.6a21.248 21.248 0 0 0-26.453333 33.28zM768 149.333333a21.12 21.12 0 0 0-21.333333-21.333333H277.333333a21.12 21.12 0 0 0-21.333333 21.333333v170.666667a21.333333 21.333333 0 0 0 42.666667 0v-149.333333h426.666666v149.333333a21.333333 21.333333 0 0 0 42.666667 0z"  horiz-adv-x="1024" />

    
    <glyph glyph-name="Unlocksecuritypadlock1" unicode="&#59917;" d="M746.666667 469.333333H392.490667v170.133334a119.509333 119.509333 0 1 0 239.018666 0V618.666667A25.6 25.6 0 0 1 682.666667 618.666667v20.8a170.666667 170.666667 0 1 1-341.333334 0V469.333333h-64a106.773333 106.773333 0 0 1-106.666666-106.666666v-298.666667a106.773333 106.773333 0 0 1 106.666666-106.666667h469.333334a106.773333 106.773333 0 0 1 106.666666 106.666667V362.666667a106.773333 106.773333 0 0 1-106.666666 106.666666zM533.333333 149.333333a21.333333 21.333333 0 0 0-42.666666 0v128a21.333333 21.333333 0 0 0 42.666666 0z"  horiz-adv-x="1024" />

    
    <glyph glyph-name="Powershutdownstart1" unicode="&#59918;" d="M512 789.333333a405.333333 405.333333 0 1 1 405.333333-405.333333A405.333333 405.333333 0 0 1 512 789.333333z m-21.333333-128a21.333333 21.333333 0 0 0 42.666666 0v-85.333333a21.333333 21.333333 0 0 0-42.666666 0z m21.333333-533.333333a255.893333 255.893333 0 0 0-116.373333 483.84 21.333333 21.333333 0 0 0 19.413333-37.994667 213.333333 213.333333 0 1 1 193.92 0 21.333333 21.333333 0 0 0 19.413333 37.994667A255.893333 255.893333 0 0 0 512 128z"  horiz-adv-x="1024" />

    
    <glyph glyph-name="showviewvisible1" unicode="&#59919;" d="M512 384m-128 0a128 128 0 1 1 256 0 128 128 0 1 1-256 0ZM512 640C220.416 640 42.666667 418.346667 42.666667 384s177.749333-256 469.333333-256 469.333333 221.653333 469.333333 256-177.749333 256-469.333333 256z m0-426.666667a170.666667 170.666667 0 1 0 170.666667 170.666667 170.837333 170.837333 0 0 0-170.666667-170.666667z"  horiz-adv-x="1024" />

    
    <glyph glyph-name="Savedatadownload1" unicode="&#59920;" d="M298.666667 768h298.666666v-170.666667H298.666667zM889.749333 591.082667l-170.666666 170.666666A21.333333 21.333333 0 0 1 704 768h-64v-192a21.333333 21.333333 0 0 0-21.333333-21.333333H277.333333a21.333333 21.333333 0 0 0-21.333333 21.333333V768h-21.333333a106.773333 106.773333 0 0 1-106.666667-106.666667v-554.666666a106.773333 106.773333 0 0 1 106.666667-106.666667h21.333333V405.333333a21.333333 21.333333 0 0 0 21.333333 21.333334h469.333334a21.333333 21.333333 0 0 0 21.333333-21.333334v-405.333333h21.333333a106.773333 106.773333 0 0 1 106.666667 106.666667V576a21.333333 21.333333 0 0 1-6.250667 15.082667zM298.666667 0h426.666666V384H298.666667z m106.666666 298.666667h213.333334a21.333333 21.333333 0 0 0 0-42.666667H405.333333a21.333333 21.333333 0 0 0 0 42.666667z m0-128h213.333334a21.333333 21.333333 0 0 0 0-42.666667H405.333333a21.333333 21.333333 0 0 0 0 42.666667z"  horiz-adv-x="1024" />

    
    <glyph glyph-name="Searchzoommagnifying1" unicode="&#59921;" d="M576 768a319.616 319.616 0 0 1-243.413333-527.210667L135.488 43.733333a25.6 25.6 0 0 1 36.224-36.202666l197.077333 197.077333A319.850667 319.850667 0 1 1 576 768z"  horiz-adv-x="1024" />

    
    <glyph glyph-name="Recordermicrophonesound1" unicode="&#59922;" d="M512 256a170.837333 170.837333 0 0 1 170.666667 170.666667V640a170.666667 170.666667 0 0 1-341.333334 0v-213.333333a170.837333 170.837333 0 0 1 170.666667-170.666667zM789.333333 473.6a25.6 25.6 0 0 1-25.6-25.6v-21.333333a251.733333 251.733333 0 0 0-503.466666 0v21.333333a25.6 25.6 0 1 1-51.2 0v-21.333333a303.168 303.168 0 0 1 277.333333-301.653334v-116.48H362.666667a25.6 25.6 0 0 1 0-51.2h298.666666a25.6 25.6 0 0 1 0 51.2h-123.733333v116.48A303.168 303.168 0 0 1 814.933333 426.666667v21.333333a25.6 25.6 0 0 1-25.6 25.6z"  horiz-adv-x="1024" />

    
    <glyph glyph-name="Recyclebintrashgarbage1" unicode="&#59923;" d="M409.6 716.8h204.8a25.6 25.6 0 0 1 0 51.2h-204.8a25.6 25.6 0 0 1 0-51.2zM827.733333 640H196.266667a25.6 25.6 0 0 1 0-51.2H256V21.333333a21.333333 21.333333 0 0 1 21.333333-21.333333h469.333334a21.333333 21.333333 0 0 1 21.333333 21.333333V588.8h59.733333a25.6 25.6 0 0 1 0 51.2zM469.333333 192a21.333333 21.333333 0 0 0-42.666666 0V448a21.333333 21.333333 0 0 0 42.666666 0z m128 0a21.333333 21.333333 0 0 0-42.666666 0V448a21.333333 21.333333 0 0 0 42.666666 0z"  horiz-adv-x="1024" />

    
    <glyph glyph-name="Sendpaperplane1" unicode="&#59924;" d="M868.416 740.416a21.418667 21.418667 0 0 1-22.165333 5.056l-725.333334-256a21.333333 21.333333 0 0 1 0.042667-40.256l315.52-110.549333 144.682667 144.682666a21.333333 21.333333 0 0 0 30.186666-30.165333l-144.682666-144.682667 110.549333-315.562666a21.333333 21.333333 0 0 1 20.074667-14.272H597.333333a21.333333 21.333333 0 0 1 20.117334 14.229333l256 725.333333a21.44 21.44 0 0 1-5.034667 22.186667z"  horiz-adv-x="1024" />

    
    <glyph glyph-name="Settingscontroloptions1" unicode="&#59925;" d="M858.090667 341.397333a53.866667 53.866667 0 0 0 0 85.205334 96.448 96.448 0 0 1-71.232 172.010666 53.824 53.824 0 0 0-60.245334 60.245334 96.448 96.448 0 0 1-172.010666 71.253333 55.509333 55.509333 0 0 0-85.205334 0 96.448 96.448 0 0 1-172.010666-71.253333 53.824 53.824 0 0 0-60.245334-60.245334 96.448 96.448 0 0 1-71.253333-172.010666 53.866667 53.866667 0 0 0 0-85.205334 96.448 96.448 0 0 1 71.253333-172.010666 53.824 53.824 0 0 0 60.245334-60.245334 94.336 94.336 0 0 1 58.773333-101.397333A99.605333 99.605333 0 0 1 394.24 0a94.357333 94.357333 0 0 1 75.157333 37.909333 55.509333 55.509333 0 0 0 85.205334 0 96.448 96.448 0 0 1 172.010666 71.253334 53.824 53.824 0 0 0 60.245334 60.224 96.448 96.448 0 0 1 71.253333 172.010666z m-346.090667-106.666666A149.269333 149.269333 0 1 0 661.269333 384 149.44 149.44 0 0 0 512 234.730667z"  horiz-adv-x="1024" />

    
    <glyph glyph-name="Arrowbottomdown" unicode="&#59926;" d="M512 789.333333a405.333333 405.333333 0 1 1 405.333333-405.333333A405.333333 405.333333 0 0 1 512 789.333333z m168.533333-358.186666l-149.333333-170.666667a25.450667 25.450667 0 0 0-38.4 0l-149.333333 170.666667a25.557333 25.557333 0 1 0 38.4 33.706666l130.133333-148.693333 130.133333 148.693333a25.557333 25.557333 0 0 0 38.4-33.706666z"  horiz-adv-x="1024" />

    
    <glyph glyph-name="Zoomoutmagnifier1" unicode="&#59927;" d="M576 768a319.616 319.616 0 0 1-243.413333-527.210667L135.488 43.733333a25.6 25.6 0 0 1 36.224-36.202666l197.077333 197.077333A319.850667 319.850667 0 1 1 576 768z m85.333333-341.333333h-170.666666a21.333333 21.333333 0 0 0 0 42.666666h170.666666a21.333333 21.333333 0 0 0 0-42.666666z"  horiz-adv-x="1024" />

    
    <glyph glyph-name="Arrowtopup1" unicode="&#59928;" d="M512-21.333333A405.333333 405.333333 0 1 1 106.666667 384a405.333333 405.333333 0 0 1 405.333333-405.333333z m-168.533333 358.186666l149.333333 170.666667a25.450667 25.450667 0 0 0 38.4 0l149.333333-170.666667a25.557333 25.557333 0 0 0-38.4-33.706666L512 451.84l-130.133333-148.693333a25.557333 25.557333 0 1 0-38.4 33.706666z"  horiz-adv-x="1024" />

    
    <glyph glyph-name="Videorecordcamera1" unicode="&#59929;" d="M928.533333 636.8a21.226667 21.226667 0 0 1-20.736 0.96L682.666667 525.162667V576a106.794667 106.794667 0 0 1-106.666667 106.666667H192a106.794667 106.794667 0 0 1-106.666667-106.666667v-384a106.794667 106.794667 0 0 1 106.666667-106.666667h384a106.794667 106.794667 0 0 1 106.666667 106.666667v50.816l225.130666-112.576A21.333333 21.333333 0 0 1 938.666667 149.333333V618.666667a21.333333 21.333333 0 0 1-10.133334 18.133333z"  horiz-adv-x="1024" />

    
    <glyph glyph-name="Arrowrightnext1" unicode="&#59930;" d="M106.666667 384A405.333333 405.333333 0 1 1 512 789.333333 405.333333 405.333333 0 0 1 106.666667 384z m358.186666 168.533333l170.666667-149.333333a25.450667 25.450667 0 0 0 0-38.4l-170.666667-149.333333a25.557333 25.557333 0 1 0-33.706666 38.4l148.693333 130.133333-148.693333 130.133333a25.557333 25.557333 0 1 0 33.706666 38.4z"  horiz-adv-x="1024" />

    
    <glyph glyph-name="Arrowleftback1" unicode="&#59931;" d="M917.333333 384a405.333333 405.333333 0 1 1-405.333333-405.333333 405.333333 405.333333 0 0 1 405.333333 405.333333z m-358.186666-168.533333l-170.666667 149.333333a25.450667 25.450667 0 0 0 0 38.4l170.666667 149.333333a25.557333 25.557333 0 0 0 33.706666-38.4L444.16 384l148.693333-130.133333a25.557333 25.557333 0 0 0-33.706666-38.4z"  horiz-adv-x="1024" />

    
    <glyph glyph-name="Bookmarktagweb1" unicode="&#59932;" d="M704 810.666667H320a106.773333 106.773333 0 0 1-106.666667-106.666667v-725.333333a21.333333 21.333333 0 0 1 11.925334-19.114667 20.970667 20.970667 0 0 1 22.4 2.218667L512 165.098667l264.32-203.328A21.312 21.312 0 0 1 789.333333-42.666667a20.906667 20.906667 0 0 1 9.408 2.197334 21.333333 21.333333 0 0 1 11.925334 19.136V704a106.773333 106.773333 0 0 1-106.666667 106.666667z"  horiz-adv-x="1024" />

    
    <glyph glyph-name="Bookmarkaddweb1" unicode="&#59933;" d="M704 810.666667H320a106.773333 106.773333 0 0 1-106.666667-106.666667v-725.333333a21.333333 21.333333 0 0 1 11.925334-19.114667 20.970667 20.970667 0 0 1 22.4 2.218667L512 165.098667l264.32-203.328A21.312 21.312 0 0 1 789.333333-42.666667a20.906667 20.906667 0 0 1 9.408 2.197334 21.333333 21.333333 0 0 1 11.925334 19.136V704a106.773333 106.773333 0 0 1-106.666667 106.666667z m-85.333333-341.333334h-85.333334v-85.333333a21.333333 21.333333 0 1 0-42.666666 0v85.333333h-85.333334a21.333333 21.333333 0 0 0 0 42.666667h85.333334v85.333333a21.333333 21.333333 0 1 0 42.666666 0v-85.333333h85.333334a21.333333 21.333333 0 0 0 0-42.666667z"  horiz-adv-x="1024" />

    
    <glyph glyph-name="Addnewcompose2" unicode="&#59934;" d="M512 789.333333a405.333333 405.333333 0 1 1 405.333333-405.333333A405.333333 405.333333 0 0 1 512 789.333333z m149.333333-426.666666h-128v-128a21.333333 21.333333 0 0 0-42.666666 0v128h-128a21.333333 21.333333 0 0 0 0 42.666666h128v128a21.333333 21.333333 0 0 0 42.666666 0v-128h128a21.333333 21.333333 0 0 0 0-42.666666z"  horiz-adv-x="1024" />

    
    <glyph glyph-name="Zoominmagnifier1" unicode="&#59935;" d="M576 768a319.616 319.616 0 0 1-243.413333-527.210667L135.488 43.733333a25.6 25.6 0 0 1 36.224-36.202666l197.077333 197.077333A319.850667 319.850667 0 1 1 576 768z m85.333333-341.333333h-64v-64a21.333333 21.333333 0 0 0-42.666666 0v64h-64a21.333333 21.333333 0 0 0 0 42.666666h64v64a21.333333 21.333333 0 0 0 42.666666 0v-64h64a21.333333 21.333333 0 0 0 0-42.666666z"  horiz-adv-x="1024" />

    
    <glyph glyph-name="shieldprotectionsecurity1" unicode="&#59936;" d="M883.754667 616.618667l-362.666667 170.666666a21.034667 21.034667 0 0 1-18.176 0l-362.666667-170.666666a21.312 21.312 0 0 1-12.245333-19.306667c0-205.824 62.976-478.933333 362.965333-611.2 4.906667-2.154667 8.810667-3.861333 11.498667-5.205333a21.354667 21.354667 0 0 1 19.072 0c2.688 1.344 6.592 3.050667 11.52 5.205333C832.981333 118.4 896 391.488 896 597.333333a21.312 21.312 0 0 1-12.245333 19.306667zM611.157333 342.314667a25.6 25.6 0 0 0-36.202666-36.16L512 369.130667l-62.954667-62.976a25.6 25.6 0 1 0-36.202666 36.16L475.818667 405.333333l-62.976 62.997334a25.6 25.6 0 1 0 36.202666 36.16L512 441.514667l62.954667 62.976a25.6 25.6 0 1 0 36.202666-36.16L548.181333 405.333333z"  horiz-adv-x="1024" />

    
    <glyph glyph-name="Cameracapturepicture1" unicode="&#59937;" d="M512 362.666667m-106.666667 0a106.666667 106.666667 0 1 1 213.333334 0 106.666667 106.666667 0 1 1-213.333334 0ZM853.333333 618.666667h-136.149333l-36.778667 73.536A21.333333 21.333333 0 0 1 661.333333 704H362.666667a21.333333 21.333333 0 0 1-19.072-11.797333L306.794667 618.666667H170.666667a85.418667 85.418667 0 0 1-85.333334-85.333334v-384a85.418667 85.418667 0 0 1 85.333334-85.333333h682.666666a85.418667 85.418667 0 0 1 85.333334 85.333333V533.333333a85.418667 85.418667 0 0 1-85.333334 85.333334zM512 213.333333a149.333333 149.333333 0 1 0 149.333333 149.333334 149.504 149.504 0 0 0-149.333333-149.333334z"  horiz-adv-x="1024" />

    
    <glyph glyph-name="clipboardnotedocument1" unicode="&#59938;" d="M341.333333 810.666667m21.333334 0l298.666666 0q21.333333 0 21.333334-21.333334l0-42.666666q0-21.333333-21.333334-21.333334l-298.666666 0q-21.333333 0-21.333334 21.333334l0 42.666666q0 21.333333 21.333334 21.333334ZM746.666667 768h-21.333334v-21.333333a64.064 64.064 0 0 0-64-64H362.666667a64.064 64.064 0 0 0-64 64V768h-21.333334a106.773333 106.773333 0 0 1-106.666666-106.666667v-597.333333a106.773333 106.773333 0 0 1 106.666666-106.666667h469.333334a106.773333 106.773333 0 0 1 106.666666 106.666667V661.333333a106.773333 106.773333 0 0 1-106.666666 106.666667zM533.333333 128h-170.666666a21.333333 21.333333 0 0 0 0 42.666667h170.666666a21.333333 21.333333 0 0 0 0-42.666667z m128 128H362.666667a21.333333 21.333333 0 0 0 0 42.666667h298.666666a21.333333 21.333333 0 0 0 0-42.666667z m0 128H362.666667a21.333333 21.333333 0 0 0 0 42.666667h298.666666a21.333333 21.333333 0 0 0 0-42.666667z m0 128H362.666667a21.333333 21.333333 0 0 0 0 42.666667h298.666666a21.333333 21.333333 0 0 0 0-42.666667z"  horiz-adv-x="1024" />

    
    <glyph glyph-name="checkmarkapprovedaccepted1" unicode="&#59939;" d="M512 789.333333a405.333333 405.333333 0 1 1 405.333333-405.333333A405.333333 405.333333 0 0 1 512 789.333333z m164.906667-318.933333l-165.333334-204.8a25.344 25.344 0 0 0-18.56-9.6h-1.28a25.322667 25.322667 0 0 0-18.133333 7.466667l-103.253333 102.4a25.493333 25.493333 0 1 0 35.84 36.266666l83.413333-82.346666 147.626667 182.613333a25.493333 25.493333 0 0 0 39.68-32z"  horiz-adv-x="1024" />

    
    <glyph glyph-name="Bookmarkdeleteweb1" unicode="&#59940;" d="M704 810.688H320a106.773333 106.773333 0 0 1-106.666667-106.666667v-725.333333a21.312 21.312 0 0 1 11.925334-19.114667 20.949333 20.949333 0 0 1 22.4 2.197334L512 165.12l264.32-203.328a21.312 21.312 0 0 1 13.013333-4.416 20.906667 20.906667 0 0 1 9.408 2.197333 21.312 21.312 0 0 1 11.925334 19.114667v725.333333a106.773333 106.773333 0 0 1-106.666667 106.666667z m-85.333333-341.333333H405.333333a21.333333 21.333333 0 0 0 0 42.666666h213.333334a21.333333 21.333333 0 0 0 0-42.666666z"  horiz-adv-x="1024" />

    
    <glyph glyph-name="Cloudstorageserver1" unicode="&#59941;" d="M810.666667 426.666667c-1.130667 0-2.218667 0-3.328-0.042667a298.474667 298.474667 0 0 1-565.397334 84.906667A213.333333 213.333333 0 0 1 256 85.333333h554.666667a170.666667 170.666667 0 0 1 0 341.333334z"  horiz-adv-x="1024" />

    
    <glyph glyph-name="Computerscreenmonitor1" unicode="&#59942;" d="M832 768H192a106.773333 106.773333 0 0 1-106.666667-106.666667v-426.666666a106.773333 106.773333 0 0 1 106.666667-106.666667h294.4v-76.8h-119.466667a25.6 25.6 0 0 1 0-51.2h290.133334a25.6 25.6 0 0 1 0 51.2h-119.466667V128H832a106.773333 106.773333 0 0 1 106.666667 106.666667V661.333333a106.773333 106.773333 0 0 1-106.666667 106.666667z"  horiz-adv-x="1024" />

    
    <glyph glyph-name="Clouduploadstorage1" unicode="&#59943;" d="M810.666667 490.666667c-1.130667 0-2.218667 0-3.328-0.042667a298.474667 298.474667 0 0 1-565.397334 84.906667A213.333333 213.333333 0 0 1 256 149.333333h187.733333v88.106667a68.266667 68.266667 0 0 0-77.162666 112.106667l102.378666 83.2a68.245333 68.245333 0 0 0 86.144-0.042667l102.378667-83.178667a68.266667 68.266667 0 0 0-43.093333-121.237333 68.821333 68.821333 0 0 0-34.112 9.130667V149.333333H810.666667a170.666667 170.666667 0 0 1 0 341.333334zM614.378667 270.954667a25.6 25.6 0 0 1 16.170666 45.461333l-102.4 83.2a25.536 25.536 0 0 1-32.298666 0l-102.4-83.2a25.6 25.6 0 0 1 32.298666-39.744l60.629334 49.28v-279.04a25.6 25.6 0 0 1 51.2 0v279.04l60.650666-49.28a25.6 25.6 0 0 1 16.149334-5.717333z"  horiz-adv-x="1024" />

    
    <glyph glyph-name="Deleteremovehide1" unicode="&#59944;" d="M512 789.333333a405.333333 405.333333 0 1 1 405.333333-405.333333A405.333333 405.333333 0 0 1 512 789.333333z m149.333333-426.666666H362.666667a21.333333 21.333333 0 0 0 0 42.666666h298.666666a21.333333 21.333333 0 0 0 0-42.666666z"  horiz-adv-x="1024" />

    
    <glyph glyph-name="deleteclosecancel1" unicode="&#59945;" d="M512 789.333333a405.333333 405.333333 0 1 1 405.333333-405.333333A405.333333 405.333333 0 0 1 512 789.333333z m120.533333-489.6a25.621333 25.621333 0 0 0 0-36.266666 25.749333 25.749333 0 0 0-36.266666 0L512 347.733333l-84.266667-84.266666a25.749333 25.749333 0 0 0-36.266666 0 25.621333 25.621333 0 0 0 0 36.266666L475.733333 384l-84.266666 84.266667a25.642667 25.642667 0 0 0 36.266666 36.266666L512 420.266667l84.266667 84.266666a25.642667 25.642667 0 0 0 36.266666-36.266666L548.266667 384z"  horiz-adv-x="1024" />

    
    <glyph glyph-name="Clouddownloadstorage1" unicode="&#59946;" d="M598.293333 149.994667l-60.714666-49.301334V379.733333a25.6 25.6 0 0 1-51.157334 0v-279.04l-60.714666 49.301334a25.6 25.6 0 1 1-32.256-39.744l102.421333-83.2a25.621333 25.621333 0 0 1 32.256 0l102.4 83.2a25.6 25.6 0 1 1-32.234667 39.744zM810.666667 490.666667c-1.130667 0-2.24 0-3.328-0.042667a298.496 298.496 0 0 1-565.418667 84.906667A213.333333 213.333333 0 0 1 256 149.333333h88.064a68.416 68.416 0 0 0 65.514667 49.045334 68.48 68.48 0 0 0 34.176-9.173334V379.733333a68.266667 68.266667 0 0 0 136.490666 0v-190.549333a68.266667 68.266667 0 0 0 87.168-16.085333A67.541333 67.541333 0 0 0 679.957333 149.333333H810.666667a170.666667 170.666667 0 0 1 0 341.333334z"  horiz-adv-x="1024" />

    
    <glyph glyph-name="Dislikeunlikethumbdown1" unicode="&#59947;" d="M214.656 256a85.44 85.44 0 0 0-85.333333 85.333333V682.666667a85.333333 85.333333 0 0 0 170.666666 0v-341.333334a85.44 85.44 0 0 0-85.333333-85.333333zM898.346667 294.250667A106.346667 106.346667 0 0 0 816.597333 256H690.986667c19.285333-78.997333 9.749333-158.464-26.24-208.426667A106.944 106.944 0 0 0 577.322667 0c-49.792 0-49.792 46.122667-49.792 79.786667 0 66.368-14.208 176.213333-168.704 219.52a21.653333 21.653333 0 0 0-16.170667 20.693333V661.461333A106.666667 106.666667 0 0 0 449.194667 768H762.24a106.496 106.496 0 0 0 104.789333-87.466667l54.378667-298.965333a106.325333 106.325333 0 0 0-23.04-87.317333z"  horiz-adv-x="1024" />

    
    <glyph glyph-name="Downloadinterfacedownloading1" unicode="&#59948;" d="M810.666667 768H213.333333a85.333333 85.333333 0 0 1-85.333333-85.333333v-597.333334a85.333333 85.333333 0 0 1 85.333333-85.333333h597.333334a85.333333 85.333333 0 0 1 85.333333 85.333333V682.666667a85.333333 85.333333 0 0 1-85.333333 85.333333zM388.693333 418.56a21.141333 21.141333 0 0 0 29.866667 3.413333l72.106667-57.6V618.666667a21.333333 21.333333 0 0 0 42.666666 0v-254.293334l72.106667 57.6a21.248 21.248 0 1 0 26.453333-33.28l-106.666666-85.333333a20.992 20.992 0 0 0-26.453334 0l-106.666666 85.333333a21.141333 21.141333 0 0 0-3.413334 29.866667zM768 149.333333a21.12 21.12 0 0 0-21.333333-21.333333H277.333333a21.12 21.12 0 0 0-21.333333 21.333333v170.666667a21.333333 21.333333 0 0 0 42.666667 0v-149.333333h426.666666v149.333333a21.333333 21.333333 0 0 0 42.666667 0z"  horiz-adv-x="1024" />

    
    <glyph glyph-name="Editwritedraft1" unicode="&#59949;" d="M597.333333 320h-85.333333a64.064 64.064 0 0 0-64 64v85.333333a63.552 63.552 0 0 0 18.752 45.248L570.837333 618.666667H192a85.333333 85.333333 0 0 1-85.333333-85.333334v-469.333333a85.333333 85.333333 0 0 1 85.333333-85.333333h554.666667a85.333333 85.333333 0 0 1 85.333333 85.333333V528.170667l-189.418667-189.44A63.552 63.552 0 0 0 597.333333 320zM911.082667 697.749333l-85.333334 85.333334a21.333333 21.333333 0 0 1-30.165333 0l-298.666667-298.666667A21.333333 21.333333 0 0 1 490.666667 469.333333v-85.333333a21.333333 21.333333 0 0 1 21.333333-21.333333h85.333333a21.333333 21.333333 0 0 1 15.082667 6.250666l298.666667 298.666667a21.333333 21.333333 0 0 1 0 30.165333z"  horiz-adv-x="1024" />

    
    <glyph glyph-name="Exitfullscreenminimizeshrink1" unicode="&#59950;" d="M810.666667 768H213.333333a85.333333 85.333333 0 0 1-85.333333-85.333333v-597.333334a85.333333 85.333333 0 0 1 85.333333-85.333333h597.333334a85.333333 85.333333 0 0 1 85.333333 85.333333V682.666667a85.333333 85.333333 0 0 1-85.333333 85.333333zM426.666667 149.333333a21.333333 21.333333 0 0 0-42.666667 0v76.501334l-91.584-91.584a21.333333 21.333333 0 0 0-30.165333 30.165333L353.834667 256H277.333333a21.333333 21.333333 0 0 0 0 42.666667h128a21.333333 21.333333 0 0 0 21.333334-21.333334z m0 341.333334a21.333333 21.333333 0 0 0-21.333334-21.333334h-128a21.333333 21.333333 0 0 0 0 42.666667h76.501334l-91.584 91.584a21.333333 21.333333 0 0 0 30.165333 30.165333L384 542.165333V618.666667a21.333333 21.333333 0 0 0 42.666667 0z m335.082666-326.250667a21.333333 21.333333 0 1 0-30.165333-30.165333L640 225.834667V149.333333a21.333333 21.333333 0 0 0-42.666667 0v128a21.333333 21.333333 0 0 0 21.333334 21.333334h128a21.333333 21.333333 0 0 0 0-42.666667h-76.501334zM746.666667 512a21.333333 21.333333 0 0 0 0-42.666667h-128a21.333333 21.333333 0 0 0-21.333334 21.333334v128a21.333333 21.333333 0 0 0 42.666667 0v-76.501334l91.584 91.584a21.333333 21.333333 0 0 0 30.165333-30.165333L670.165333 512z"  horiz-adv-x="1024" />

    
    <glyph glyph-name="Filterfunnelsort1" unicode="&#59951;" d="M872.149333 756.736A21.333333 21.333333 0 0 1 853.333333 768H170.666667a21.333333 21.333333 0 0 1-17.749334-33.173333L405.333333 356.202667V21.333333a21.333333 21.333333 0 0 1 21.333334-21.333333 20.8 20.8 0 0 1 5.162666 0.64l170.666667 42.666667A21.333333 21.333333 0 0 1 618.666667 64V356.202667L871.082667 734.826667a21.354667 21.354667 0 0 1 1.066666 21.909333z"  horiz-adv-x="1024" />

    
    <glyph glyph-name="Filedocumentpaper1" unicode="&#59952;" d="M661.333333 755.498667V597.333333h158.165334L661.333333 755.498667zM640 554.666667a21.333333 21.333333 0 0 0-21.333333 21.333333V768H277.333333a85.418667 85.418667 0 0 1-85.333333-85.333333v-597.333334a85.418667 85.418667 0 0 1 85.333333-85.333333h469.333334a85.418667 85.418667 0 0 1 85.333333 85.333333V554.666667z"  horiz-adv-x="1024" />

    
    <glyph glyph-name="Flagmarkpoint1" unicode="&#59953;" d="M798.869333 760.533333a21.290667 21.290667 0 0 1-22.336-2.005333c-84.949333-63.722667-195.84-33.856-303.082666-4.970667-94.954667 25.6-184.576 49.706667-250.624 5.653334a21.397333 21.397333 0 0 1-9.493334-17.749334v-721.066666a25.6 25.6 0 1 1 51.157334 0V348.650667c50.218667 19.264 122.069333 0.128 197.845333-20.266667a754.624 754.624 0 0 1 190.869333-34.24 239.914667 239.914667 0 0 1 148.928 46.250667 21.333333 21.333333 0 0 1 8.533334 17.066666v384a21.376 21.376 0 0 1-11.797334 19.072z"  horiz-adv-x="1024" />

    
    <glyph glyph-name="Folderfilesarchive1" unicode="&#59954;" d="M938.666667 490.666667v64a106.773333 106.773333 0 0 1-106.666667 106.666666H542.165333l-79.082666 79.082667A21.333333 21.333333 0 0 1 448 746.666667H192a106.773333 106.773333 0 0 1-106.666667-106.666667v-149.333333zM85.333333 448v-320a106.773333 106.773333 0 0 1 106.666667-106.666667h640a106.773333 106.773333 0 0 1 106.666667 106.666667V448z"  horiz-adv-x="1024" />

    
    <glyph glyph-name="Documentpaperdraft1" unicode="&#59955;" d="M746.666667 810.666667H277.333333a106.773333 106.773333 0 0 1-106.666666-106.666667v-640a106.773333 106.773333 0 0 1 106.666666-106.666667h469.333334a106.773333 106.773333 0 0 1 106.666666 106.666667V704a106.773333 106.773333 0 0 1-106.666666 106.666667zM490.666667 213.333333h-128a21.333333 21.333333 0 0 0 0 42.666667h128a21.333333 21.333333 0 0 0 0-42.666667z m170.666666 128H362.666667a21.333333 21.333333 0 0 0 0 42.666667h298.666666a21.333333 21.333333 0 0 0 0-42.666667z m0 128H362.666667a21.333333 21.333333 0 0 0 0 42.666667h298.666666a21.333333 21.333333 0 0 0 0-42.666667z m0 128H362.666667a21.333333 21.333333 0 0 0 0 42.666667h298.666666a21.333333 21.333333 0 0 0 0-42.666667z"  horiz-adv-x="1024" />

    
    <glyph glyph-name="Gpsnavigationlocation1" unicode="&#59956;" d="M511.872 384m-170.666667 0a170.666667 170.666667 0 1 1 341.333334 0 170.666667 170.666667 0 1 1-341.333334 0ZM913.216 409.6h-57.066667A345.642667 345.642667 0 0 1 537.472 728.32V785.066667a25.6 25.6 0 0 1-51.2 0v-56.746667A345.642667 345.642667 0 0 1 167.573333 409.6h-56.533333a25.6 25.6 0 0 1 0-51.2h56.533333a345.642667 345.642667 0 0 1 318.698667-318.72v-56.768a25.6 25.6 0 0 1 51.2 0V39.68A345.642667 345.642667 0 0 1 856.149333 358.4h57.066667a25.6 25.6 0 0 1 0 51.2z m-401.344-320a294.4 294.4 0 1 0 294.4 294.4 294.741333 294.741333 0 0 0-294.4-294.4z"  horiz-adv-x="1024" />

    
    <glyph glyph-name="Fullscreenmaximizeexpand1" unicode="&#59957;" d="M810.666667 768H213.333333a85.333333 85.333333 0 0 1-85.333333-85.333333v-597.333334a85.333333 85.333333 0 0 1 85.333333-85.333333h597.333334a85.333333 85.333333 0 0 1 85.333333 85.333333V682.666667a85.333333 85.333333 0 0 1-85.333333 85.333333zM405.333333 170.666667a21.333333 21.333333 0 0 0 0-42.666667h-128a21.333333 21.333333 0 0 0-21.333333 21.333333v128a21.333333 21.333333 0 0 0 42.666667 0v-76.501333l91.584 91.584a21.333333 21.333333 0 0 0 30.165333-30.165333L328.832 170.666667z m15.082667 335.082666a21.333333 21.333333 0 1 0-30.165333-30.165333L298.666667 567.168V490.666667a21.333333 21.333333 0 0 0-42.666667 0v128a21.333333 21.333333 0 0 0 21.333333 21.333333h128a21.333333 21.333333 0 0 0 0-42.666667h-76.501333zM768 149.333333a21.333333 21.333333 0 0 0-21.333333-21.333333h-128a21.333333 21.333333 0 0 0 0 42.666667h76.501333l-91.584 91.584a21.333333 21.333333 0 0 0 30.165333 30.165333L725.333333 200.832V277.333333a21.333333 21.333333 0 0 0 42.666667 0z m0 341.333334a21.333333 21.333333 0 0 0-42.666667 0v76.501333l-91.584-91.584a21.333333 21.333333 0 0 0-30.165333 30.165333L695.168 597.333333H618.666667a21.333333 21.333333 0 0 0 0 42.666667h128a21.333333 21.333333 0 0 0 21.333333-21.333333z"  horiz-adv-x="1024" />

    
    <glyph glyph-name="Inboxemaildrawer1" unicode="&#59958;" d="M934.826667 465.706667l-126.634667 204.821333a25.6 25.6 0 0 1-21.76 12.138667H237.568a25.6 25.6 0 0 1-21.76-12.117334L89.173333 465.706667A34.218667 34.218667 0 0 1 85.333333 448v-341.333333a21.333333 21.333333 0 0 1 21.333334-21.333334h810.666666a21.333333 21.333333 0 0 1 21.333334 21.333334V448a37.674667 37.674667 0 0 1-3.84 17.706667zM571.733333 247.509333h-119.466666a25.6 25.6 0 1 0 0 51.157334h119.466666a25.6 25.6 0 1 0 0-51.157334zM151.594667 469.333333l100.266666 162.176h520.277334l100.266666-162.176z"  horiz-adv-x="1024" />

    
    <glyph glyph-name="Homehomepagemenu1" unicode="&#59959;" d="M886.976 508.096l-362.666667 256a21.354667 21.354667 0 0 1-24.618666 0l-362.666667-256A21.376 21.376 0 0 1 128 490.666667v-469.333334a21.333333 21.333333 0 0 1 21.333333-21.333333h234.666667a21.333333 21.333333 0 0 1 21.333333 21.333333V277.333333h213.333334v-256a21.333333 21.333333 0 0 1 21.333333-21.333333h234.666667a21.333333 21.333333 0 0 1 21.333333 21.333333V490.666667a21.376 21.376 0 0 1-9.024 17.429333z"  horiz-adv-x="1024" />

    
    <glyph glyph-name="hideinvisiblehidden1" unicode="&#59960;" d="M817.472 696.490667a25.557333 25.557333 0 0 1-36.16 0l-86.912-86.890667A561.237333 561.237333 0 0 1 512 640C220.416 640 42.666667 418.346667 42.666667 384c0-23.274667 82.026667-132.501333 225.6-200.533333l-75.797334-75.797334a25.578667 25.578667 0 1 1 36.16-36.16L817.493333 660.330667a25.557333 25.557333 0 0 1 0 36.16zM341.333333 384a170.837333 170.837333 0 0 0 170.666667 170.666667 166.976 166.976 0 0 0 96.554667-30.933334l-30.933334-30.933333A125.013333 125.013333 0 0 1 512 512a128.149333 128.149333 0 0 1-128-128 125.013333 125.013333 0 0 1 19.178667-65.621333l-30.933334-30.933334A166.976 166.976 0 0 0 341.333333 384zM793.536 565.12l-122.026667-122.026667A168.917333 168.917333 0 0 0 682.666667 384a170.837333 170.837333 0 0 0-170.666667-170.666667 168.917333 168.917333 0 0 0-59.093333 11.157334l-78.976-78.954667A560.384 560.384 0 0 1 512 128c291.584 0 469.333333 221.653333 469.333333 256 0 21.162667-67.712 113.408-187.797333 181.12zM512 256a127.744 127.744 0 0 1 125.461333 153.066667l-150.528-150.528A128.042667 128.042667 0 0 1 512 256z"  horiz-adv-x="1024" />

    
    <glyph glyph-name="Likevotethumbup1" unicode="&#59961;" d="M214.656 512a85.44 85.44 0 0 1-85.333333-85.333333v-341.333334a85.333333 85.333333 0 0 1 170.666666 0V426.666667a85.44 85.44 0 0 1-85.333333 85.333333zM898.346667 473.749333A106.346667 106.346667 0 0 1 816.597333 512H690.986667c19.285333 78.997333 9.749333 158.464-26.24 208.426667A106.944 106.944 0 0 1 577.322667 768c-49.792 0-49.792-46.122667-49.792-79.786667 0-66.368-14.208-176.213333-168.704-219.52a21.653333 21.653333 0 0 1-16.170667-20.693333v-341.461333A106.666667 106.666667 0 0 1 449.194667 0H762.24a106.496 106.496 0 0 1 104.789333 87.466667l54.378667 298.965333a106.325333 106.325333 0 0 1-23.04 87.317333z"  horiz-adv-x="1024" />

    
    <glyph glyph-name="Listmenuoptions1" unicode="&#59962;" d="M810.666667 768H213.333333a85.333333 85.333333 0 0 1-85.333333-85.333333v-597.333334a85.333333 85.333333 0 0 1 85.333333-85.333333h597.333334a85.333333 85.333333 0 0 1 85.333333 85.333333V682.666667a85.333333 85.333333 0 0 1-85.333333 85.333333z m-106.666667-597.333333H320a21.333333 21.333333 0 0 0 0 42.666666h384a21.333333 21.333333 0 0 0 0-42.666666z m0 192H320a21.333333 21.333333 0 0 0 0 42.666666h384a21.333333 21.333333 0 0 0 0-42.666666z m0 192H320a21.333333 21.333333 0 0 0 0 42.666666h384a21.333333 21.333333 0 0 0 0-42.666666z"  horiz-adv-x="1024" />

    
    <glyph glyph-name="Locationpinmarker1" unicode="&#59963;" d="M512 810.666667A341.717333 341.717333 0 0 1 170.666667 469.333333c0-283.946667 302.997333-512 341.333333-512s341.333333 228.053333 341.333333 512A341.717333 341.717333 0 0 1 512 810.666667z m0-490.666667a149.333333 149.333333 0 1 0 149.333333 149.333333 149.504 149.504 0 0 0-149.333333-149.333333z"  horiz-adv-x="1024" />

    
    <glyph glyph-name="Mailletterenvelope1" unicode="&#59964;" d="M521.941333 322.048A25.194667 25.194667 0 0 0 512 320a25.557333 25.557333 0 0 0-9.941333 2.026667L85.333333 498.645333V170.666667a106.794667 106.794667 0 0 1 106.666667-106.666667h640a106.794667 106.794667 0 0 1 106.666667 106.666667V498.730667zM512 373.76L938.666667 554.666667v42.666666a106.794667 106.794667 0 0 1-106.666667 106.666667H192a106.794667 106.794667 0 0 1-106.666667-106.666667v-42.688z"  horiz-adv-x="1024" />

    
    <glyph glyph-name="Maptraveltrip1" unicode="&#59965;" d="M384 761.109333L184.085333 681.173333A21.312 21.312 0 0 1 170.666667 661.333333v-597.333333a21.333333 21.333333 0 0 1 29.248-19.818667L384 117.824zM597.333333 656.341333l-170.666666 102.4v-647.082666l170.666666-102.4V656.341333zM843.946667 721.664a21.333333 21.333333 0 0 1-19.861334 2.133333L640 650.218667v-643.306667l199.914667 79.957333A21.312 21.312 0 0 1 853.333333 106.666667V704a21.312 21.312 0 0 1-9.386666 17.664z"  horiz-adv-x="1024" />

    
    <glyph glyph-name="Monthdatecalendar1" unicode="&#59966;" d="M128 149.333333a106.773333 106.773333 0 0 1 106.666667-106.666666h554.666666a106.773333 106.773333 0 0 1 106.666667 106.666666V469.333333H128zM789.333333 682.666667h-64v-64a21.333333 21.333333 0 0 0-42.666666 0V704a21.333333 21.333333 0 0 1-42.666667 0v-21.333333H426.666667v-64a21.333333 21.333333 0 0 0-42.666667 0V704a21.333333 21.333333 0 0 1-42.666667 0v-21.333333h-106.666666a106.773333 106.773333 0 0 1-106.666667-106.666667v-64h768v64a106.773333 106.773333 0 0 1-106.666667 106.666667z"  horiz-adv-x="1024" />

    
    <glyph glyph-name="Favoritestarrate1" unicode="&#59967;" d="M892.992 475.370667a60.330667 60.330667 0 0 1-49.002667 41.28l-191.808 27.882666-85.76 173.802667a60.693333 60.693333 0 0 1-108.821333 0l-85.76-173.802667-191.829333-27.861333a60.672 60.672 0 0 1-33.642667-103.509333l138.816-135.274667-32.789333-191.04a60.693333 60.693333 0 0 1 88.064-63.957333L512 113.066667l171.562667-90.197334a60.309333 60.309333 0 0 1 63.893333 4.629334 60.245333 60.245333 0 0 1 24.128 59.349333l-32.768 191.018667 138.816 135.296a60.309333 60.309333 0 0 1 15.36 62.208z"  horiz-adv-x="1024" />

    
    <glyph glyph-name="Locksecuritypadlock1" unicode="&#59968;" d="M746.666667 469.333333h-64v170.133334a170.666667 170.666667 0 1 1-341.333334 0V469.333333h-64a106.773333 106.773333 0 0 1-106.666666-106.666666v-298.666667a106.773333 106.773333 0 0 1 106.666666-106.666667h469.333334a106.773333 106.773333 0 0 1 106.666666 106.666667V362.666667a106.773333 106.773333 0 0 1-106.666666 106.666666z m-354.176 170.133334a119.509333 119.509333 0 1 0 239.018666 0V469.333333H392.490667zM533.333333 149.333333a21.333333 21.333333 0 0 0-42.666666 0v128a21.333333 21.333333 0 0 0 42.666666 0z"  horiz-adv-x="1024" />

    


  </font>
</defs>
</svg>
